G04*
G04 #@! TF.GenerationSoftware,Altium Limited,Altium Designer,23.3.1 (30)*
G04*
G04 Layer_Color=2752767*
%FSLAX44Y44*%
%MOMM*%
G71*
G04*
G04 #@! TF.SameCoordinates,EAF1F0D8-16AB-4789-B3CC-ED1B898C5CC7*
G04*
G04*
G04 #@! TF.FilePolarity,Positive*
G04*
G01*
G75*
%ADD83C,0.1693*%
%ADD84C,0.1270*%
%ADD85C,0.1016*%
D83*
X382270Y478790D02*
G03*
X382270Y478790I-5080J0D01*
G01*
Y453390D02*
G03*
X382270Y453390I-5080J0D01*
G01*
X356870Y478790D02*
G03*
X356870Y478790I-5080J0D01*
G01*
Y453390D02*
G03*
X356870Y453390I-5080J0D01*
G01*
X331470Y478790D02*
G03*
X331470Y478790I-5080J0D01*
G01*
Y453390D02*
G03*
X331470Y453390I-5080J0D01*
G01*
X665480Y311087D02*
G03*
X665480Y311087I-5080J0D01*
G01*
Y336487D02*
G03*
X665480Y336487I-5080J0D01*
G01*
X690880Y311087D02*
G03*
X690880Y311087I-5080J0D01*
G01*
Y336487D02*
G03*
X690880Y336487I-5080J0D01*
G01*
X716280Y311087D02*
G03*
X716280Y311087I-5080J0D01*
G01*
Y336487D02*
G03*
X716280Y336487I-5080J0D01*
G01*
X741680Y311087D02*
G03*
X741680Y311087I-5080J0D01*
G01*
Y336487D02*
G03*
X741680Y336487I-5080J0D01*
G01*
X767080Y311087D02*
G03*
X767080Y311087I-5080J0D01*
G01*
Y336487D02*
G03*
X767080Y336487I-5080J0D01*
G01*
X1059650Y565150D02*
G03*
X1059650Y565150I-5080J0D01*
G01*
X959650D02*
G03*
X959650Y565150I-5080J0D01*
G01*
X640880Y725170D02*
G03*
X640880Y725170I-5080J0D01*
G01*
X740880D02*
G03*
X740880Y725170I-5080J0D01*
G01*
X987590Y726440D02*
G03*
X987590Y726440I-5080J0D01*
G01*
X1087590D02*
G03*
X1087590Y726440I-5080J0D01*
G01*
Y773430D02*
G03*
X1087590Y773430I-5080J0D01*
G01*
X987590D02*
G03*
X987590Y773430I-5080J0D01*
G01*
X1057110Y528320D02*
G03*
X1057110Y528320I-5080J0D01*
G01*
X957110D02*
G03*
X957110Y528320I-5080J0D01*
G01*
X1057110Y450850D02*
G03*
X1057110Y450850I-5080J0D01*
G01*
X957110D02*
G03*
X957110Y450850I-5080J0D01*
G01*
X1057110Y490220D02*
G03*
X1057110Y490220I-5080J0D01*
G01*
X957110D02*
G03*
X957110Y490220I-5080J0D01*
G01*
X855980Y568160D02*
G03*
X855980Y568160I-5080J0D01*
G01*
Y468160D02*
G03*
X855980Y468160I-5080J0D01*
G01*
X899160Y469430D02*
G03*
X899160Y469430I-5080J0D01*
G01*
Y569430D02*
G03*
X899160Y569430I-5080J0D01*
G01*
X814070Y568160D02*
G03*
X814070Y568160I-5080J0D01*
G01*
Y468160D02*
G03*
X814070Y468160I-5080J0D01*
G01*
X516420Y715010D02*
G03*
X516420Y715010I-5080J0D01*
G01*
X616420D02*
G03*
X616420Y715010I-5080J0D01*
G01*
X640880Y772160D02*
G03*
X640880Y772160I-5080J0D01*
G01*
X740880D02*
G03*
X740880Y772160I-5080J0D01*
G01*
X462750Y671830D02*
G03*
X462750Y671830I-5080J0D01*
G01*
X362750D02*
G03*
X362750Y671830I-5080J0D01*
G01*
X461480Y717550D02*
G03*
X461480Y717550I-5080J0D01*
G01*
X361480D02*
G03*
X361480Y717550I-5080J0D01*
G01*
X1261110Y317500D02*
G03*
X1261110Y317500I-5080J0D01*
G01*
X1235710D02*
G03*
X1235710Y317500I-5080J0D01*
G01*
X1210310D02*
G03*
X1210310Y317500I-5080J0D01*
G01*
X1385570D02*
G03*
X1385570Y317500I-5080J0D01*
G01*
X1360170D02*
G03*
X1360170Y317500I-5080J0D01*
G01*
X1334770D02*
G03*
X1334770Y317500I-5080J0D01*
G01*
D84*
X394900Y322580D02*
X397440Y325120D01*
X399980D01*
X397440Y327660D01*
X399980Y330200D01*
X397440D01*
X394900Y332740D01*
X392360Y330200D01*
X389820D01*
X392360Y327660D01*
X389820Y325120D01*
X392360D01*
X394900Y322580D01*
X419900D02*
X422440Y325120D01*
X424980D01*
X422440Y327660D01*
X424980Y330200D01*
X422440D01*
X419900Y332740D01*
X417360Y330200D01*
X414820D01*
X417360Y327660D01*
X414820Y325120D01*
X417360D01*
X419900Y322580D01*
X444900D02*
X447440Y325120D01*
X449980D01*
X447440Y327660D01*
X449980Y330200D01*
X447440D01*
X444900Y332740D01*
X442360Y330200D01*
X439820D01*
X442360Y327660D01*
X439820Y325120D01*
X442360D01*
X444900Y322580D01*
X469900D02*
X472440Y325120D01*
X474980D01*
X472440Y327660D01*
X474980Y330200D01*
X472440D01*
X469900Y332740D01*
X467360Y330200D01*
X464820D01*
X467360Y327660D01*
X464820Y325120D01*
X467360D01*
X469900Y322580D01*
X875773D02*
X878313Y325120D01*
X880853D01*
X878313Y327660D01*
X880853Y330200D01*
X878313D01*
X875773Y332740D01*
X873233Y330200D01*
X870693D01*
X873233Y327660D01*
X870693Y325120D01*
X873233D01*
X875773Y322580D01*
X850772D02*
X853313Y325120D01*
X855853D01*
X853313Y327660D01*
X855853Y330200D01*
X853313D01*
X850772Y332740D01*
X848232Y330200D01*
X845693D01*
X848232Y327660D01*
X845693Y325120D01*
X848232D01*
X850772Y322580D01*
X568760Y393870D02*
X571300Y396410D01*
X573840D01*
X571300Y398950D01*
X573840Y401490D01*
X571300D01*
X568760Y404030D01*
X566220Y401490D01*
X563680D01*
X566220Y398950D01*
X563680Y396410D01*
X566220D01*
X568760Y393870D01*
X543760D02*
X546300Y396410D01*
X548840D01*
X546300Y398950D01*
X548840Y401490D01*
X546300D01*
X543760Y404030D01*
X541220Y401490D01*
X538680D01*
X541220Y398950D01*
X538680Y396410D01*
X541220D01*
X543760Y393870D01*
X976630Y326390D02*
Y334854D01*
X980862Y339086D01*
X985094Y334854D01*
Y326390D01*
Y332738D01*
X976630D01*
X951230Y326390D02*
Y334854D01*
X955462Y339086D01*
X959694Y334854D01*
Y326390D01*
Y332738D01*
X951230D01*
X925830Y326390D02*
Y334854D01*
X930062Y339086D01*
X934294Y334854D01*
Y326390D01*
Y332738D01*
X925830D01*
X844520Y771300D02*
X847060D01*
X849600Y773840D01*
X852140Y771300D01*
X854680D01*
Y773840D01*
X852140Y776380D01*
X854680Y778920D01*
Y781460D01*
X852140D01*
X849600Y778920D01*
X847060Y781460D01*
X844520D01*
Y778920D01*
X847060Y776380D01*
X844520Y773840D01*
Y771300D01*
X920780D02*
X923320D01*
X925860Y773840D01*
X928400Y771300D01*
X930940D01*
Y773840D01*
X928400Y776380D01*
X930940Y778920D01*
Y781460D01*
X928400D01*
X925860Y778920D01*
X923320Y781460D01*
X920780D01*
Y778920D01*
X923320Y776380D01*
X920780Y773840D01*
Y771300D01*
X1562380Y655320D02*
Y652780D01*
X1567460D01*
Y655320D01*
X1570000D01*
Y660400D01*
X1567460D01*
Y662940D01*
X1562380D01*
Y660400D01*
X1559840D01*
Y655320D01*
X1562380D01*
X1597380D02*
Y652780D01*
X1602460D01*
Y655320D01*
X1605000D01*
Y660400D01*
X1602460D01*
Y662940D01*
X1597380D01*
Y660400D01*
X1594840D01*
Y655320D01*
X1597380D01*
X1678940Y637540D02*
X1681480Y642620D01*
X1678940Y647700D01*
X1684020Y645160D01*
X1689100Y647700D01*
X1686560Y642620D01*
X1689100Y637540D01*
X1684020Y640080D01*
X1678940Y637540D01*
X1680972Y639572D02*
X1682496Y642620D01*
X1680972Y645668D01*
X1684020Y644144D01*
X1687068Y645668D01*
X1685544Y642620D01*
X1687068Y639572D01*
X1684020Y641096D01*
X1680972Y639572D01*
X1678940Y662940D02*
X1681480Y668020D01*
X1678940Y673100D01*
X1684020Y670560D01*
X1689100Y673100D01*
X1686560Y668020D01*
X1689100Y662940D01*
X1684020Y665480D01*
X1678940Y662940D01*
X1680972Y664972D02*
X1682496Y668020D01*
X1680972Y671068D01*
X1684020Y669544D01*
X1687068Y671068D01*
X1685544Y668020D01*
X1687068Y664972D01*
X1684020Y666496D01*
X1680972Y664972D01*
X1678940Y688340D02*
X1681480Y693420D01*
X1678940Y698500D01*
X1684020Y695960D01*
X1689100Y698500D01*
X1686560Y693420D01*
X1689100Y688340D01*
X1684020Y690880D01*
X1678940Y688340D01*
X1680972Y690372D02*
X1682496Y693420D01*
X1680972Y696468D01*
X1684020Y694944D01*
X1687068Y696468D01*
X1685544Y693420D01*
X1687068Y690372D01*
X1684020Y691896D01*
X1680972Y690372D01*
X1343660Y695960D02*
X1348740Y701040D01*
X1353820Y695960D01*
X1348740Y690880D01*
X1343660Y695960D01*
Y645160D02*
X1348740Y650240D01*
X1353820Y645160D01*
X1348740Y640080D01*
X1343660Y645160D01*
X1390030Y670560D02*
X1395110Y675640D01*
X1400190Y670560D01*
X1395110Y665480D01*
X1390030Y670560D01*
X1503030D02*
X1508110Y675640D01*
X1513190Y670560D01*
X1508110Y665480D01*
X1503030Y670560D01*
X1416990Y519430D02*
Y529590D01*
X1427150D01*
Y519430D01*
X1416990D01*
X1419022Y521462D02*
Y527558D01*
X1425118D01*
Y521462D01*
X1419022D01*
X1416990Y544830D02*
Y554990D01*
X1427150D01*
Y544830D01*
X1416990D01*
X1419022Y546862D02*
Y552958D01*
X1425118D01*
Y546862D01*
X1419022D01*
X1416990Y570230D02*
Y580390D01*
X1427150D01*
Y570230D01*
X1416990D01*
X1419022Y572262D02*
Y578358D01*
X1425118D01*
Y572262D01*
X1419022D01*
X1416990Y595630D02*
Y605790D01*
X1427150D01*
Y595630D01*
X1416990D01*
X1419022Y597662D02*
Y603758D01*
X1425118D01*
Y597662D01*
X1419022D01*
X1496390Y595630D02*
Y605790D01*
X1506550D01*
Y595630D01*
X1496390D01*
X1498422Y597662D02*
Y603758D01*
X1504518D01*
Y597662D01*
X1498422D01*
X1496390Y570230D02*
Y580390D01*
X1506550D01*
Y570230D01*
X1496390D01*
X1498422Y572262D02*
Y578358D01*
X1504518D01*
Y572262D01*
X1498422D01*
X1496390Y544830D02*
Y554990D01*
X1506550D01*
Y544830D01*
X1496390D01*
X1498422Y546862D02*
Y552958D01*
X1504518D01*
Y546862D01*
X1498422D01*
X1496390Y519430D02*
Y529590D01*
X1506550D01*
Y519430D01*
X1496390D01*
X1498422Y521462D02*
Y527558D01*
X1504518D01*
Y521462D01*
X1498422D01*
X1412240Y458190D02*
Y455650D01*
X1417320D01*
Y458190D01*
X1419860D01*
Y463270D01*
X1417320D01*
Y465810D01*
X1412240D01*
Y463270D01*
X1409700D01*
Y458190D01*
X1412240D01*
Y423190D02*
Y420650D01*
X1417320D01*
Y423190D01*
X1419860D01*
Y428270D01*
X1417320D01*
Y430810D01*
X1412240D01*
Y428270D01*
X1409700D01*
Y423190D01*
X1412240D01*
X1579880Y533680D02*
Y531140D01*
X1584960D01*
Y533680D01*
X1587500D01*
Y538760D01*
X1584960D01*
Y541300D01*
X1579880D01*
Y538760D01*
X1577340D01*
Y533680D01*
X1579880D01*
Y568680D02*
Y566140D01*
X1584960D01*
Y568680D01*
X1587500D01*
Y573760D01*
X1584960D01*
Y576300D01*
X1579880D01*
Y573760D01*
X1577340D01*
Y568680D01*
X1579880D01*
X1701374Y328080D02*
X1699258Y330196D01*
X1695026D01*
X1692910Y328080D01*
Y319616D01*
X1695026Y317500D01*
X1699258D01*
X1701374Y319616D01*
Y782740D02*
X1699258Y784856D01*
X1695026D01*
X1692910Y782740D01*
Y774276D01*
X1695026Y772160D01*
X1699258D01*
X1701374Y774276D01*
X341204Y328080D02*
X339088Y330196D01*
X334856D01*
X332740Y328080D01*
Y319616D01*
X334856Y317500D01*
X339088D01*
X341204Y319616D01*
Y782740D02*
X339088Y784856D01*
X334856D01*
X332740Y782740D01*
Y774276D01*
X334856Y772160D01*
X339088D01*
X341204Y774276D01*
X1129030Y343770D02*
X1131570Y346310D01*
X1134110D01*
X1131570Y348850D01*
X1134110Y351390D01*
X1131570D01*
X1129030Y353930D01*
X1126490Y351390D01*
X1123950D01*
X1126490Y348850D01*
X1123950Y346310D01*
X1126490D01*
X1129030Y343770D01*
Y318770D02*
X1131570Y321310D01*
X1134110D01*
X1131570Y323850D01*
X1134110Y326390D01*
X1131570D01*
X1129030Y328930D01*
X1126490Y326390D01*
X1123950D01*
X1126490Y323850D01*
X1123950Y321310D01*
X1126490D01*
X1129030Y318770D01*
X1690370Y389890D02*
Y398354D01*
X1694602Y402586D01*
X1698834Y398354D01*
Y389890D01*
Y396238D01*
X1690370D01*
Y415290D02*
Y423754D01*
X1694602Y427986D01*
X1698834Y423754D01*
Y415290D01*
Y421638D01*
X1690370D01*
Y440690D02*
Y449154D01*
X1694602Y453386D01*
X1698834Y449154D01*
Y440690D01*
Y447038D01*
X1690370D01*
X1614170Y388620D02*
Y397084D01*
X1618402Y401316D01*
X1622634Y397084D01*
Y388620D01*
Y394968D01*
X1614170D01*
Y414020D02*
Y422484D01*
X1618402Y426716D01*
X1622634Y422484D01*
Y414020D01*
Y420368D01*
X1614170D01*
Y439420D02*
Y447884D01*
X1618402Y452116D01*
X1622634Y447884D01*
Y439420D01*
Y445768D01*
X1614170D01*
X984250Y596570D02*
X979170Y606730D01*
X989330D01*
X984250Y596570D01*
X1009650D02*
X1004570Y606730D01*
X1014730D01*
X1009650Y596570D01*
X1035050D02*
X1029970Y606730D01*
X1040130D01*
X1035050Y596570D01*
X1060450D02*
X1055370Y606730D01*
X1065530D01*
X1060450Y596570D01*
Y675970D02*
X1055370Y686130D01*
X1065530D01*
X1060450Y675970D01*
X1035050D02*
X1029970Y686130D01*
X1040130D01*
X1035050Y675970D01*
X1009650D02*
X1004570Y686130D01*
X1014730D01*
X1009650Y675970D01*
X984250D02*
X979170Y686130D01*
X989330D01*
X984250Y675970D01*
X1115060Y645160D02*
X1120140Y650240D01*
X1125220Y645160D01*
X1120140Y640080D01*
X1115060Y645160D01*
Y695960D02*
X1120140Y701040D01*
X1125220Y695960D01*
X1120140Y690880D01*
X1115060Y695960D01*
X340560Y393870D02*
X343100Y396410D01*
X345640D01*
X343100Y398950D01*
X345640Y401490D01*
X343100D01*
X340560Y404030D01*
X338020Y401490D01*
X335480D01*
X338020Y398950D01*
X335480Y396410D01*
X338020D01*
X340560Y393870D01*
X365560D02*
X368100Y396410D01*
X370640D01*
X368100Y398950D01*
X370640Y401490D01*
X368100D01*
X365560Y404030D01*
X363020Y401490D01*
X360480D01*
X363020Y398950D01*
X360480Y396410D01*
X363020D01*
X365560Y393870D01*
X442160Y393870D02*
X444700Y396410D01*
X447240D01*
X444700Y398950D01*
X447240Y401490D01*
X444700D01*
X442160Y404030D01*
X439620Y401490D01*
X437080D01*
X439620Y398950D01*
X437080Y396410D01*
X439620D01*
X442160Y393870D01*
X467160D02*
X469700Y396410D01*
X472240D01*
X469700Y398950D01*
X472240Y401490D01*
X469700D01*
X467160Y404030D01*
X464620Y401490D01*
X462080D01*
X464620Y398950D01*
X462080Y396410D01*
X464620D01*
X467160Y393870D01*
X800100Y727710D02*
X802640Y730250D01*
X805180D01*
X802640Y732790D01*
X805180Y735330D01*
X802640D01*
X800100Y737870D01*
X797560Y735330D01*
X795020D01*
X797560Y732790D01*
X795020Y730250D01*
X797560D01*
X800100Y727710D01*
Y752710D02*
X802640Y755250D01*
X805180D01*
X802640Y757790D01*
X805180Y760330D01*
X802640D01*
X800100Y762870D01*
X797560Y760330D01*
X795020D01*
X797560Y757790D01*
X795020Y755250D01*
X797560D01*
X800100Y752710D01*
X665480Y416560D02*
X668020Y419100D01*
X670560D01*
X668020Y421640D01*
X670560Y424180D01*
X668020D01*
X665480Y426720D01*
X662940Y424180D01*
X660400D01*
X662940Y421640D01*
X660400Y419100D01*
X662940D01*
X665480Y416560D01*
X690480D02*
X693020Y419100D01*
X695560D01*
X693020Y421640D01*
X695560Y424180D01*
X693020D01*
X690480Y426720D01*
X687940Y424180D01*
X685400D01*
X687940Y421640D01*
X685400Y419100D01*
X687940D01*
X690480Y416560D01*
X715480D02*
X718020Y419100D01*
X720560D01*
X718020Y421640D01*
X720560Y424180D01*
X718020D01*
X715480Y426720D01*
X712940Y424180D01*
X710400D01*
X712940Y421640D01*
X710400Y419100D01*
X712940D01*
X715480Y416560D01*
X740480D02*
X743020Y419100D01*
X745560D01*
X743020Y421640D01*
X745560Y424180D01*
X743020D01*
X740480Y426720D01*
X737940Y424180D01*
X735400D01*
X737940Y421640D01*
X735400Y419100D01*
X737940D01*
X740480Y416560D01*
X539950Y320210D02*
X542490Y322750D01*
X545030D01*
X542490Y325290D01*
X545030Y327830D01*
X542490D01*
X539950Y330370D01*
X537410Y327830D01*
X534870D01*
X537410Y325290D01*
X534870Y322750D01*
X537410D01*
X539950Y320210D01*
X564950D02*
X567490Y322750D01*
X570030D01*
X567490Y325290D01*
X570030Y327830D01*
X567490D01*
X564950Y330370D01*
X562410Y327830D01*
X559870D01*
X562410Y325290D01*
X559870Y322750D01*
X562410D01*
X564950Y320210D01*
X1159110Y748030D02*
X1161650Y750570D01*
X1164190D01*
X1161650Y753110D01*
X1164190Y755650D01*
X1161650D01*
X1159110Y758190D01*
X1156570Y755650D01*
X1154030D01*
X1156570Y753110D01*
X1154030Y750570D01*
X1156570D01*
X1159110Y748030D01*
X1134110D02*
X1136650Y750570D01*
X1139190D01*
X1136650Y753110D01*
X1139190Y755650D01*
X1136650D01*
X1134110Y758190D01*
X1131570Y755650D01*
X1129030D01*
X1131570Y753110D01*
X1129030Y750570D01*
X1131570D01*
X1134110Y748030D01*
X823360Y412750D02*
X825900Y415290D01*
X828440D01*
X825900Y417830D01*
X828440Y420370D01*
X825900D01*
X823360Y422910D01*
X820820Y420370D01*
X818280D01*
X820820Y417830D01*
X818280Y415290D01*
X820820D01*
X823360Y412750D01*
X848360D02*
X850900Y415290D01*
X853440D01*
X850900Y417830D01*
X853440Y420370D01*
X850900D01*
X848360Y422910D01*
X845820Y420370D01*
X843280D01*
X845820Y417830D01*
X843280Y415290D01*
X845820D01*
X848360Y412750D01*
X932580Y398780D02*
X935120Y401320D01*
X937660D01*
X935120Y403860D01*
X937660Y406400D01*
X935120D01*
X932580Y408940D01*
X930040Y406400D01*
X927500D01*
X930040Y403860D01*
X927500Y401320D01*
X930040D01*
X932580Y398780D01*
X957580D02*
X960120Y401320D01*
X962660D01*
X960120Y403860D01*
X962660Y406400D01*
X960120D01*
X957580Y408940D01*
X955040Y406400D01*
X952500D01*
X955040Y403860D01*
X952500Y401320D01*
X955040D01*
X957580Y398780D01*
X1104900Y408940D02*
Y419100D01*
X1115060D01*
Y408940D01*
X1104900D01*
X1130300D02*
Y419100D01*
X1140460D01*
Y408940D01*
X1130300D01*
X1155700D02*
Y419100D01*
X1165860D01*
Y408940D01*
X1155700D01*
X1181100D02*
Y419100D01*
X1191260D01*
Y408940D01*
X1181100D01*
X1206500D02*
Y419100D01*
X1216660D01*
Y408940D01*
X1206500D01*
X1231900D02*
Y419100D01*
X1242060D01*
Y408940D01*
X1231900D01*
X1257300D02*
Y419100D01*
X1267460D01*
Y408940D01*
X1257300D01*
X1282700D02*
Y419100D01*
X1292860D01*
Y408940D01*
X1282700D01*
X1308100D02*
Y419100D01*
X1318260D01*
Y408940D01*
X1308100D01*
X1333500D02*
Y419100D01*
X1343660D01*
Y408940D01*
X1333500D01*
X1334156Y452120D02*
Y462280D01*
X1344316D01*
Y452120D01*
X1334156D01*
X1308756D02*
Y462280D01*
X1318916D01*
Y452120D01*
X1308756D01*
X1283356D02*
Y462280D01*
X1293516D01*
Y452120D01*
X1283356D01*
X1257956D02*
Y462280D01*
X1268116D01*
Y452120D01*
X1257956D01*
X1232556D02*
Y462280D01*
X1242716D01*
Y452120D01*
X1232556D01*
X1207156D02*
Y462280D01*
X1217316D01*
Y452120D01*
X1207156D01*
X1181756D02*
Y462280D01*
X1191916D01*
Y452120D01*
X1181756D01*
X1156356D02*
Y462280D01*
X1166516D01*
Y452120D01*
X1156356D01*
X1130956D02*
Y462280D01*
X1141116D01*
Y452120D01*
X1130956D01*
X1105556D02*
Y462280D01*
X1115716D01*
Y452120D01*
X1105556D01*
X1343660Y527050D02*
X1348740Y532130D01*
X1353820Y527050D01*
X1348740Y521970D01*
X1343660Y527050D01*
Y577850D02*
X1348740Y582930D01*
X1353820Y577850D01*
X1348740Y572770D01*
X1343660Y577850D01*
X1172210Y645160D02*
X1177290Y650240D01*
X1182370Y645160D01*
X1177290Y640080D01*
X1172210Y645160D01*
Y695960D02*
X1177290Y701040D01*
X1182370Y695960D01*
X1177290Y690880D01*
X1172210Y695960D01*
X1286510Y645160D02*
X1291590Y650240D01*
X1296670Y645160D01*
X1291590Y640080D01*
X1286510Y645160D01*
Y695960D02*
X1291590Y701040D01*
X1296670Y695960D01*
X1291590Y690880D01*
X1286510Y695960D01*
X1229360Y645160D02*
X1234440Y650240D01*
X1239520Y645160D01*
X1234440Y640080D01*
X1229360Y645160D01*
Y695960D02*
X1234440Y701040D01*
X1239520Y695960D01*
X1234440Y690880D01*
X1229360Y695960D01*
X1286510Y527050D02*
X1291590Y532130D01*
X1296670Y527050D01*
X1291590Y521970D01*
X1286510Y527050D01*
Y577850D02*
X1291590Y582930D01*
X1296670Y577850D01*
X1291590Y572770D01*
X1286510Y577850D01*
X1229360Y527050D02*
X1234440Y532130D01*
X1239520Y527050D01*
X1234440Y521970D01*
X1229360Y527050D01*
Y577850D02*
X1234440Y582930D01*
X1239520Y577850D01*
X1234440Y572770D01*
X1229360Y577850D01*
X1172210Y527050D02*
X1177290Y532130D01*
X1182370Y527050D01*
X1177290Y521970D01*
X1172210Y527050D01*
Y577850D02*
X1177290Y582930D01*
X1182370Y577850D01*
X1177290Y572770D01*
X1172210Y577850D01*
X1115060Y527050D02*
X1120140Y532130D01*
X1125220Y527050D01*
X1120140Y521970D01*
X1115060Y527050D01*
Y577850D02*
X1120140Y582930D01*
X1125220Y577850D01*
X1120140Y572770D01*
X1115060Y577850D01*
X1678940Y561340D02*
X1681480Y566420D01*
X1678940Y571500D01*
X1684020Y568960D01*
X1689100Y571500D01*
X1686560Y566420D01*
X1689100Y561340D01*
X1684020Y563880D01*
X1678940Y561340D01*
X1680972Y563372D02*
X1682496Y566420D01*
X1680972Y569468D01*
X1684020Y567944D01*
X1687068Y569468D01*
X1685544Y566420D01*
X1687068Y563372D01*
X1684020Y564896D01*
X1680972Y563372D01*
X1678940Y535940D02*
X1681480Y541020D01*
X1678940Y546100D01*
X1684020Y543560D01*
X1689100Y546100D01*
X1686560Y541020D01*
X1689100Y535940D01*
X1684020Y538480D01*
X1678940Y535940D01*
X1680972Y537972D02*
X1682496Y541020D01*
X1680972Y544068D01*
X1684020Y542544D01*
X1687068Y544068D01*
X1685544Y541020D01*
X1687068Y537972D01*
X1684020Y539496D01*
X1680972Y537972D01*
X1678940Y510540D02*
X1681480Y515620D01*
X1678940Y520700D01*
X1684020Y518160D01*
X1689100Y520700D01*
X1686560Y515620D01*
X1689100Y510540D01*
X1684020Y513080D01*
X1678940Y510540D01*
X1680972Y512572D02*
X1682496Y515620D01*
X1680972Y518668D01*
X1684020Y517144D01*
X1687068Y518668D01*
X1685544Y515620D01*
X1687068Y512572D01*
X1684020Y514096D01*
X1680972Y512572D01*
X1575200Y748030D02*
X1577740Y750570D01*
X1580280D01*
X1577740Y753110D01*
X1580280Y755650D01*
X1577740D01*
X1575200Y758190D01*
X1572660Y755650D01*
X1570120D01*
X1572660Y753110D01*
X1570120Y750570D01*
X1572660D01*
X1575200Y748030D01*
X1600200D02*
X1602740Y750570D01*
X1605280D01*
X1602740Y753110D01*
X1605280Y755650D01*
X1602740D01*
X1600200Y758190D01*
X1597660Y755650D01*
X1595120D01*
X1597660Y753110D01*
X1595120Y750570D01*
X1597660D01*
X1600200Y748030D01*
X834390Y601980D02*
X839470Y607060D01*
X844550Y601980D01*
X839470Y596900D01*
X834390Y601980D01*
X859790D02*
X864870Y607060D01*
X869950Y601980D01*
X864870Y596900D01*
X859790Y601980D01*
X885190D02*
X890270Y607060D01*
X895350Y601980D01*
X890270Y596900D01*
X885190Y601980D01*
X910590D02*
X915670Y607060D01*
X920750Y601980D01*
X915670Y596900D01*
X910590Y601980D01*
X834390Y678180D02*
X839470Y683260D01*
X844550Y678180D01*
X839470Y673100D01*
X834390Y678180D01*
X859790D02*
X864870Y683260D01*
X869950Y678180D01*
X864870Y673100D01*
X859790Y678180D01*
X885190D02*
X890270Y683260D01*
X895350Y678180D01*
X890270Y673100D01*
X885190Y678180D01*
X910590D02*
X915670Y683260D01*
X920750Y678180D01*
X915670Y673100D01*
X910590Y678180D01*
X654440Y539750D02*
X649360Y549910D01*
X659520D01*
X654440Y539750D01*
Y541782D02*
X651392Y547878D01*
X657488D01*
X654440Y541782D01*
X544440Y539750D02*
X539360Y549910D01*
X549520D01*
X544440Y539750D01*
Y541782D02*
X541392Y547878D01*
X547488D01*
X544440Y541782D01*
X653170Y491490D02*
X648090Y501650D01*
X658250D01*
X653170Y491490D01*
Y493522D02*
X650122Y499618D01*
X656218D01*
X653170Y493522D01*
X543170Y491490D02*
X538090Y501650D01*
X548250D01*
X543170Y491490D01*
Y493522D02*
X540122Y499618D01*
X546218D01*
X543170Y493522D01*
X1504300Y726440D02*
X1509380Y731520D01*
X1514460Y726440D01*
X1509380Y721360D01*
X1504300Y726440D01*
X1391300D02*
X1396380Y731520D01*
X1401460Y726440D01*
X1396380Y721360D01*
X1391300Y726440D01*
X1021080Y339090D02*
Y336550D01*
X1026160D01*
Y339090D01*
X1028700D01*
Y344170D01*
X1026160D01*
Y346710D01*
X1021080D01*
Y344170D01*
X1018540D01*
Y339090D01*
X1021080D01*
Y326390D02*
Y323850D01*
X1026160D01*
Y326390D01*
X1028700D01*
Y331470D01*
X1026160D01*
Y334010D01*
X1021080D01*
Y331470D01*
X1018540D01*
Y326390D01*
X1021080D01*
Y313690D02*
Y311150D01*
X1026160D01*
Y313690D01*
X1028700D01*
Y318770D01*
X1026160D01*
Y321310D01*
X1021080D01*
Y318770D01*
X1018540D01*
Y313690D01*
X1021080D01*
X1562100Y314960D02*
X1564640Y320040D01*
X1562100Y325120D01*
X1567180Y322580D01*
X1572260Y325120D01*
X1569720Y320040D01*
X1572260Y314960D01*
X1567180Y317500D01*
X1562100Y314960D01*
X1587600D02*
X1590140Y320040D01*
X1587600Y325120D01*
X1592680Y322580D01*
X1597760Y325120D01*
X1595220Y320040D01*
X1597760Y314960D01*
X1592680Y317500D01*
X1587600Y314960D01*
X1613100D02*
X1615640Y320040D01*
X1613100Y325120D01*
X1618180Y322580D01*
X1623260Y325120D01*
X1620720Y320040D01*
X1623260Y314960D01*
X1618180Y317500D01*
X1613100Y314960D01*
X1496260D02*
X1498800Y320040D01*
X1496260Y325120D01*
X1501340Y322580D01*
X1506420Y325120D01*
X1503880Y320040D01*
X1506420Y314960D01*
X1501340Y317500D01*
X1496260Y314960D01*
X1470760D02*
X1473300Y320040D01*
X1470760Y325120D01*
X1475840Y322580D01*
X1480920Y325120D01*
X1478380Y320040D01*
X1480920Y314960D01*
X1475840Y317500D01*
X1470760Y314960D01*
X1445260D02*
X1447800Y320040D01*
X1445260Y325120D01*
X1450340Y322580D01*
X1455420Y325120D01*
X1452880Y320040D01*
X1455420Y314960D01*
X1450340Y317500D01*
X1445260Y314960D01*
X683260Y549910D02*
X678180Y560070D01*
X688340D01*
X683260Y549910D01*
X708660D02*
X703580Y560070D01*
X713740D01*
X708660Y549910D01*
X734060D02*
X728980Y560070D01*
X739140D01*
X734060Y549910D01*
X759460D02*
X754380Y560070D01*
X764540D01*
X759460Y549910D01*
Y470510D02*
X754380Y480670D01*
X764540D01*
X759460Y470510D01*
X734060D02*
X728980Y480670D01*
X739140D01*
X734060Y470510D01*
X708660D02*
X703580Y480670D01*
X713740D01*
X708660Y470510D01*
X683260D02*
X678180Y480670D01*
X688340D01*
X683260Y470510D01*
X688340Y592760D02*
X683260Y602920D01*
X693420D01*
X688340Y592760D01*
X713740D02*
X708660Y602920D01*
X718820D01*
X713740Y592760D01*
X739140D02*
X734060Y602920D01*
X744220D01*
X739140Y592760D01*
X764540D02*
X759460Y602920D01*
X769620D01*
X764540Y592760D01*
Y672160D02*
X759460Y682320D01*
X769620D01*
X764540Y672160D01*
X739140D02*
X734060Y682320D01*
X744220D01*
X739140Y672160D01*
X713740D02*
X708660Y682320D01*
X718820D01*
X713740Y672160D01*
X688340D02*
X683260Y682320D01*
X693420D01*
X688340Y672160D01*
X541020Y591490D02*
X535940Y601650D01*
X546100D01*
X541020Y591490D01*
X566420D02*
X561340Y601650D01*
X571500D01*
X566420Y591490D01*
X591820D02*
X586740Y601650D01*
X596900D01*
X591820Y591490D01*
X617220D02*
X612140Y601650D01*
X622300D01*
X617220Y591490D01*
Y670890D02*
X612140Y681050D01*
X622300D01*
X617220Y670890D01*
X591820D02*
X586740Y681050D01*
X596900D01*
X591820Y670890D01*
X566420D02*
X561340Y681050D01*
X571500D01*
X566420Y670890D01*
X541020D02*
X535940Y681050D01*
X546100D01*
X541020Y670890D01*
X844520Y722630D02*
X847060D01*
X849600Y725170D01*
X852140Y722630D01*
X854680D01*
Y725170D01*
X852140Y727710D01*
X854680Y730250D01*
Y732790D01*
X852140D01*
X849600Y730250D01*
X847060Y732790D01*
X844520D01*
Y730250D01*
X847060Y727710D01*
X844520Y725170D01*
Y722630D01*
X920780D02*
X923320D01*
X925860Y725170D01*
X928400Y722630D01*
X930940D01*
Y725170D01*
X928400Y727710D01*
X930940Y730250D01*
Y732790D01*
X928400D01*
X925860Y730250D01*
X923320Y732790D01*
X920780D01*
Y730250D01*
X923320Y727710D01*
X920780Y725170D01*
Y722630D01*
X336550Y623570D02*
X341630Y628650D01*
X346710Y623570D01*
X341630Y618490D01*
X336550Y623570D01*
Y572770D02*
X341630Y577850D01*
X346710Y572770D01*
X341630Y567690D01*
X336550Y572770D01*
X391160D02*
X396240Y577850D01*
X401320Y572770D01*
X396240Y567690D01*
X391160Y572770D01*
Y623570D02*
X396240Y628650D01*
X401320Y623570D01*
X396240Y618490D01*
X391160Y623570D01*
X449580D02*
X454660Y628650D01*
X459740Y623570D01*
X454660Y618490D01*
X449580Y623570D01*
Y572770D02*
X454660Y577850D01*
X459740Y572770D01*
X454660Y567690D01*
X449580Y572770D01*
X1520190Y423190D02*
Y420650D01*
X1525270D01*
Y423190D01*
X1527810D01*
Y428270D01*
X1525270D01*
Y430810D01*
X1520190D01*
Y428270D01*
X1517650D01*
Y423190D01*
X1520190D01*
Y458190D02*
Y455650D01*
X1525270D01*
Y458190D01*
X1527810D01*
Y463270D01*
X1525270D01*
Y465810D01*
X1520190D01*
Y463270D01*
X1517650D01*
Y458190D01*
X1520190D01*
X585114Y565506D02*
X587654Y568046D01*
X590194D01*
X587654Y570586D01*
X590194Y573126D01*
X587654D01*
X585114Y575666D01*
X582574Y573126D01*
X580034D01*
X582574Y570586D01*
X580034Y568046D01*
X582574D01*
X585114Y565506D01*
Y567538D02*
X586638Y569062D01*
X588162D01*
X586638Y570586D01*
X588162Y572110D01*
X586638D01*
X585114Y573634D01*
X583590Y572110D01*
X582066D01*
X583590Y570586D01*
X582066Y569062D01*
X583590D01*
X585114Y567538D01*
X576580Y565150D02*
X579120Y567690D01*
X581660D01*
X579120Y570230D01*
X581660Y572770D01*
X579120D01*
X576580Y575310D01*
X574040Y572770D01*
X571500D01*
X574040Y570230D01*
X571500Y567690D01*
X574040D01*
X576580Y565150D01*
Y567182D02*
X578104Y568706D01*
X579628D01*
X578104Y570230D01*
X579628Y571754D01*
X578104D01*
X576580Y573278D01*
X575056Y571754D01*
X573532D01*
X575056Y570230D01*
X573532Y568706D01*
X575056D01*
X576580Y567182D01*
X566420Y565150D02*
X568960Y567690D01*
X571500D01*
X568960Y570230D01*
X571500Y572770D01*
X568960D01*
X566420Y575310D01*
X563880Y572770D01*
X561340D01*
X563880Y570230D01*
X561340Y567690D01*
X563880D01*
X566420Y565150D01*
Y567182D02*
X567944Y568706D01*
X569468D01*
X567944Y570230D01*
X569468Y571754D01*
X567944D01*
X566420Y573278D01*
X564896Y571754D01*
X563372D01*
X564896Y570230D01*
X563372Y568706D01*
X564896D01*
X566420Y567182D01*
X585470Y574040D02*
X588010Y576580D01*
X590550D01*
X588010Y579120D01*
X590550Y581660D01*
X588010D01*
X585470Y584200D01*
X582930Y581660D01*
X580390D01*
X582930Y579120D01*
X580390Y576580D01*
X582930D01*
X585470Y574040D01*
Y576072D02*
X586994Y577596D01*
X588518D01*
X586994Y579120D01*
X588518Y580644D01*
X586994D01*
X585470Y582168D01*
X583946Y580644D01*
X582422D01*
X583946Y579120D01*
X582422Y577596D01*
X583946D01*
X585470Y576072D01*
X576580Y574040D02*
X579120Y576580D01*
X581660D01*
X579120Y579120D01*
X581660Y581660D01*
X579120D01*
X576580Y584200D01*
X574040Y581660D01*
X571500D01*
X574040Y579120D01*
X571500Y576580D01*
X574040D01*
X576580Y574040D01*
Y576072D02*
X578104Y577596D01*
X579628D01*
X578104Y579120D01*
X579628Y580644D01*
X578104D01*
X576580Y582168D01*
X575056Y580644D01*
X573532D01*
X575056Y579120D01*
X573532Y577596D01*
X575056D01*
X576580Y576072D01*
X561340Y574040D02*
X563880D01*
X566420Y576580D01*
X568960Y574040D01*
X571500D01*
Y576580D01*
X568960Y579120D01*
X571500Y581660D01*
Y584200D01*
X568960D01*
X566420Y581660D01*
X563880Y584200D01*
X561340D01*
Y581660D01*
X563880Y579120D01*
X561340Y576580D01*
Y574040D01*
X563372Y576072D02*
X564896D01*
X566420Y577596D01*
X567944Y576072D01*
X569468D01*
Y577596D01*
X567944Y579120D01*
X569468Y580644D01*
Y582168D01*
X567944D01*
X566420Y580644D01*
X564896Y582168D01*
X563372D01*
Y580644D01*
X564896Y579120D01*
X563372Y577596D01*
Y576072D01*
X1062990Y334010D02*
X1065530Y336550D01*
X1068070D01*
X1065530Y339090D01*
X1068070Y341630D01*
X1065530D01*
X1062990Y344170D01*
X1060450Y341630D01*
X1057910D01*
X1060450Y339090D01*
X1057910Y336550D01*
X1060450D01*
X1062990Y334010D01*
Y336042D02*
X1064514Y337566D01*
X1066038D01*
X1064514Y339090D01*
X1066038Y340614D01*
X1064514D01*
X1062990Y342138D01*
X1061466Y340614D01*
X1059942D01*
X1061466Y339090D01*
X1059942Y337566D01*
X1061466D01*
X1062990Y336042D01*
X1052830Y334010D02*
X1055370Y336550D01*
X1057910D01*
X1055370Y339090D01*
X1057910Y341630D01*
X1055370D01*
X1052830Y344170D01*
X1050290Y341630D01*
X1047750D01*
X1050290Y339090D01*
X1047750Y336550D01*
X1050290D01*
X1052830Y334010D01*
Y336042D02*
X1054354Y337566D01*
X1055878D01*
X1054354Y339090D01*
X1055878Y340614D01*
X1054354D01*
X1052830Y342138D01*
X1051306Y340614D01*
X1049782D01*
X1051306Y339090D01*
X1049782Y337566D01*
X1051306D01*
X1052830Y336042D01*
X1041400Y334010D02*
X1043940Y336550D01*
X1046480D01*
X1043940Y339090D01*
X1046480Y341630D01*
X1043940D01*
X1041400Y344170D01*
X1038860Y341630D01*
X1036320D01*
X1038860Y339090D01*
X1036320Y336550D01*
X1038860D01*
X1041400Y334010D01*
Y336042D02*
X1042924Y337566D01*
X1044448D01*
X1042924Y339090D01*
X1044448Y340614D01*
X1042924D01*
X1041400Y342138D01*
X1039876Y340614D01*
X1038352D01*
X1039876Y339090D01*
X1038352Y337566D01*
X1039876D01*
X1041400Y336042D01*
X1051560Y316230D02*
X1054100Y318770D01*
X1056640D01*
X1054100Y321310D01*
X1056640Y323850D01*
X1054100D01*
X1051560Y326390D01*
X1049020Y323850D01*
X1046480D01*
X1049020Y321310D01*
X1046480Y318770D01*
X1049020D01*
X1051560Y316230D01*
Y318262D02*
X1053084Y319786D01*
X1054608D01*
X1053084Y321310D01*
X1054608Y322834D01*
X1053084D01*
X1051560Y324358D01*
X1050036Y322834D01*
X1048512D01*
X1050036Y321310D01*
X1048512Y319786D01*
X1050036D01*
X1051560Y318262D01*
X1041400Y316230D02*
X1043940Y318770D01*
X1046480D01*
X1043940Y321310D01*
X1046480Y323850D01*
X1043940D01*
X1041400Y326390D01*
X1038860Y323850D01*
X1036320D01*
X1038860Y321310D01*
X1036320Y318770D01*
X1038860D01*
X1041400Y316230D01*
Y318262D02*
X1042924Y319786D01*
X1044448D01*
X1042924Y321310D01*
X1044448Y322834D01*
X1042924D01*
X1041400Y324358D01*
X1039876Y322834D01*
X1038352D01*
X1039876Y321310D01*
X1038352Y319786D01*
X1039876D01*
X1041400Y318262D01*
X1062990Y325120D02*
X1065530Y327660D01*
X1068070D01*
X1065530Y330200D01*
X1068070Y332740D01*
X1065530D01*
X1062990Y335280D01*
X1060450Y332740D01*
X1057910D01*
X1060450Y330200D01*
X1057910Y327660D01*
X1060450D01*
X1062990Y325120D01*
Y327152D02*
X1064514Y328676D01*
X1066038D01*
X1064514Y330200D01*
X1066038Y331724D01*
X1064514D01*
X1062990Y333248D01*
X1061466Y331724D01*
X1059942D01*
X1061466Y330200D01*
X1059942Y328676D01*
X1061466D01*
X1062990Y327152D01*
X1052830Y325120D02*
X1055370Y327660D01*
X1057910D01*
X1055370Y330200D01*
X1057910Y332740D01*
X1055370D01*
X1052830Y335280D01*
X1050290Y332740D01*
X1047750D01*
X1050290Y330200D01*
X1047750Y327660D01*
X1050290D01*
X1052830Y325120D01*
Y327152D02*
X1054354Y328676D01*
X1055878D01*
X1054354Y330200D01*
X1055878Y331724D01*
X1054354D01*
X1052830Y333248D01*
X1051306Y331724D01*
X1049782D01*
X1051306Y330200D01*
X1049782Y328676D01*
X1051306D01*
X1052830Y327152D01*
X1041400Y325120D02*
X1043940Y327660D01*
X1046480D01*
X1043940Y330200D01*
X1046480Y332740D01*
X1043940D01*
X1041400Y335280D01*
X1038860Y332740D01*
X1036320D01*
X1038860Y330200D01*
X1036320Y327660D01*
X1038860D01*
X1041400Y325120D01*
Y327152D02*
X1042924Y328676D01*
X1044448D01*
X1042924Y330200D01*
X1044448Y331724D01*
X1042924D01*
X1041400Y333248D01*
X1039876Y331724D01*
X1038352D01*
X1039876Y330200D01*
X1038352Y328676D01*
X1039876D01*
X1041400Y327152D01*
X615950Y419100D02*
Y416560D01*
X621030D01*
Y419100D01*
X623570D01*
Y424180D01*
X621030D01*
Y426720D01*
X615950D01*
Y424180D01*
X613410D01*
Y419100D01*
X615950D01*
X616966Y420116D02*
Y418592D01*
X620014D01*
Y420116D01*
X621538D01*
Y423164D01*
X620014D01*
Y424688D01*
X616966D01*
Y423164D01*
X615442D01*
Y420116D01*
X616966D01*
D85*
X1057618Y565150D02*
G03*
X1057618Y565150I-3048J0D01*
G01*
X957618D02*
G03*
X957618Y565150I-3048J0D01*
G01*
X638848Y725170D02*
G03*
X638848Y725170I-3048J0D01*
G01*
X738848D02*
G03*
X738848Y725170I-3048J0D01*
G01*
X985558Y726440D02*
G03*
X985558Y726440I-3048J0D01*
G01*
X1085558D02*
G03*
X1085558Y726440I-3048J0D01*
G01*
Y773430D02*
G03*
X1085558Y773430I-3048J0D01*
G01*
X985558D02*
G03*
X985558Y773430I-3048J0D01*
G01*
X1055078Y528320D02*
G03*
X1055078Y528320I-3048J0D01*
G01*
X955078D02*
G03*
X955078Y528320I-3048J0D01*
G01*
X1055078Y450850D02*
G03*
X1055078Y450850I-3048J0D01*
G01*
X955078D02*
G03*
X955078Y450850I-3048J0D01*
G01*
X1055078Y490220D02*
G03*
X1055078Y490220I-3048J0D01*
G01*
X955078D02*
G03*
X955078Y490220I-3048J0D01*
G01*
X853948Y568160D02*
G03*
X853948Y568160I-3048J0D01*
G01*
Y468160D02*
G03*
X853948Y468160I-3048J0D01*
G01*
X897128Y469430D02*
G03*
X897128Y469430I-3048J0D01*
G01*
Y569430D02*
G03*
X897128Y569430I-3048J0D01*
G01*
X812038Y568160D02*
G03*
X812038Y568160I-3048J0D01*
G01*
Y468160D02*
G03*
X812038Y468160I-3048J0D01*
G01*
X514388Y715010D02*
G03*
X514388Y715010I-3048J0D01*
G01*
X614388D02*
G03*
X614388Y715010I-3048J0D01*
G01*
X638848Y772160D02*
G03*
X638848Y772160I-3048J0D01*
G01*
X738848D02*
G03*
X738848Y772160I-3048J0D01*
G01*
X460718Y671830D02*
G03*
X460718Y671830I-3048J0D01*
G01*
X360718D02*
G03*
X360718Y671830I-3048J0D01*
G01*
X459448Y717550D02*
G03*
X459448Y717550I-3048J0D01*
G01*
X359448D02*
G03*
X359448Y717550I-3048J0D01*
G01*
M02*
