M48
;Layer_Color=9474304
;FILE_FORMAT=2:3
INCH,LZ
;TYPE=PLATED
T1F00S00C0.014
T2F00S00C0.020
T3F00S00C0.028
T4F00S00C0.029
T5F00S00C0.030
T6F00S00C0.031
T7F00S00C0.033
T8F00S00C0.035
T9F00S00C0.039
T10F00S00C0.040
T11F00S00C0.041
T12F00S00C0.043
T13F00S00C0.051
T14F00S00C0.157
%
T01
X041Y01265
Y013
Y01335
X04145
Y013
X0414Y01265
X04185Y013
Y01335
X02304Y02246
X0227Y02245
Y0228
X02305
X0223
Y02245
T02
X02435Y0166
T03
X03345Y02865
Y03057
X03645
Y02865
T04
X05599Y02065
Y02165
Y02265
Y02365
X05911
Y02265
Y02165
Y02065
T05
X03185Y01843
X0335
X0352Y01848
X03748Y01775
Y0193
Y0208
X03758Y02225
X0352Y02242
X0335Y02237
X03185
X03875Y02369
X03975
X04075
X04175
X04152Y02225
X04142Y0208
Y0193
Y01775
X04175Y02681
X04075
X03975
X03875
X03868Y0286
Y03045
X04262
Y0286
X02897Y02855
X02897Y0304
X0291Y02666
X0301
X0281
X0271
X0243Y02661
X0233
X0223
X0213
X02013Y02815
X01797Y02825
X01802Y02645
X0213Y02349
X0223
X0233
X0243
X0271Y02354
X0281
X0291
X0301
X0299Y02185
X0289
X0279
X0269
Y01872
X0279
X0289
X0299
X02503Y02855
X02407Y02815
X02503Y0304
X01403Y02825
X01408Y02645
T06
X0403Y01245
Y01295
Y01345
X06299Y0259
X06161
X0623Y02249
Y02111
X05995Y01814
Y01676
X0557Y01676
Y01814
T07
X02138Y01955
X02143Y02145
X02577
X02572Y01955
T08
X0486Y02075
Y02275
X05085
Y02075
X0531
Y02275
Y0254
Y0274
X05085
Y0254
X0486
Y0274
X05493Y0264
X05498Y0286
X05942
X05937Y0264
X04635Y0254
Y0274
X0441
Y0254
Y02275
Y02075
X04635
Y02275
X03605Y0237
X03505
X03405
X03305
Y0267
X03405
X03505
X03605
X0179Y02455
Y02255
X0156
Y02455
X01345
Y02255
T09
X01555Y0129
X01653
X01752
X0185
X02126Y01281
X02224
X03349Y0129
X03448
X04445Y01275
Y01373
X063Y02965
X06202
X04563
X04465
X0315Y02983
Y02885
X03242Y01645
X0334
X03672Y0159
X0377
X02915Y0166
X02817
X02718
X0262
X02239Y01571
X02141
X01839
X01741
X01439Y01571
X01341
T10
X0477Y0163
X0487
X0497
X0507
X0517
X0527
X05273Y018
X05173
X05073
X04973
X04873
X04773
X04673
X04573
X04473
X04373
X0437Y0163
X0447
X0457
X0467
T11
X03645Y01285
X03745
X03845
X06355Y0153
X06655Y01535
Y01635
Y01735
X06355Y0173
Y0163
T12
X026Y01225
Y01325
X027
Y01225
X028
Y01325
X029
Y01225
X03
Y01325
X04745Y0125
X04845
X04945
X05235
X05335
X05435
X01485Y01785
Y01885
X01385
Y01785
X01285
Y01885
T13
X0571Y0126
X0581
X05911
X0617
X0627
X06371
X0663Y0203
Y0213
Y0223
Y0253
Y0263
Y0273
T14
X0131Y0125
X06665
Y0304
X0131
M30
