G04*
G04 #@! TF.GenerationSoftware,Altium Limited,Altium Designer,23.3.1 (30)*
G04*
G04 Layer_Color=32768*
%FSLAX44Y44*%
%MOMM*%
G71*
G04*
G04 #@! TF.SameCoordinates,EAF1F0D8-16AB-4789-B3CC-ED1B898C5CC7*
G04*
G04*
G04 #@! TF.FilePolarity,Positive*
G04*
G01*
G75*
%ADD13C,0.2000*%
%ADD14C,0.1000*%
%ADD82C,0.0500*%
D13*
X1625920Y657860D02*
G03*
X1538920Y657860I-43500J0D01*
G01*
D02*
G03*
X1625920Y657860I43500J0D01*
G01*
X1414780Y399730D02*
G03*
X1414780Y486730I0J43500D01*
G01*
D02*
G03*
X1414780Y399730I0J-43500D01*
G01*
X1582420Y597220D02*
G03*
X1582420Y510220I0J-43500D01*
G01*
D02*
G03*
X1582420Y597220I0J43500D01*
G01*
X1522730Y486730D02*
G03*
X1522730Y399730I0J-43500D01*
G01*
D02*
G03*
X1522730Y486730I0J43500D01*
G01*
X825273Y292660D02*
Y352160D01*
Y292660D02*
X901272D01*
Y352160D01*
X825273D02*
X901272D01*
X518260Y363950D02*
Y423450D01*
Y363950D02*
X594260D01*
Y423450D01*
X518260D02*
X594260D01*
X932860Y765830D02*
Y786930D01*
X842600D02*
X932860D01*
X842600Y765830D02*
Y786930D01*
Y765830D02*
X932860D01*
X1516110Y654060D02*
Y687060D01*
X1387110D02*
X1516110D01*
X1387110Y654060D02*
Y687060D01*
Y654060D02*
X1516110D01*
X1153530Y298350D02*
Y374350D01*
X1094030Y298350D02*
X1153530D01*
X1094030D02*
Y374350D01*
X1153530D01*
X947320Y551650D02*
Y578650D01*
Y551650D02*
X1061820D01*
Y578650D01*
X947320D02*
X1061820D01*
X315060Y423450D02*
X391060D01*
Y363950D02*
Y423450D01*
X315060Y363950D02*
X391060D01*
X315060D02*
Y423450D01*
X416660Y423450D02*
X492660D01*
Y363950D02*
Y423450D01*
X416660Y363950D02*
X492660D01*
X416660D02*
Y423450D01*
X775600Y707290D02*
Y783290D01*
X835100D01*
Y707290D02*
Y783290D01*
X775600Y707290D02*
X835100D01*
X514450Y349790D02*
X590450D01*
Y290290D02*
Y349790D01*
X514450Y290290D02*
X590450D01*
X514450D02*
Y349790D01*
X1108610Y728610D02*
X1184610D01*
X1108610D02*
Y788110D01*
X1184610D01*
Y728610D02*
Y788110D01*
X797860Y442330D02*
X873860D01*
Y382830D02*
Y442330D01*
X797860Y382830D02*
X873860D01*
X797860D02*
Y442330D01*
X907080Y428360D02*
X983080D01*
Y368860D02*
Y428360D01*
X907080Y368860D02*
X983080D01*
X907080D02*
Y428360D01*
X1351391Y400701D02*
Y427339D01*
X1097169D02*
X1351391D01*
X1097169Y400701D02*
Y427339D01*
Y400701D02*
X1351391D01*
X1097825Y443881D02*
Y470519D01*
Y443881D02*
X1352047D01*
Y470519D01*
X1097825D02*
X1352047D01*
X743050Y711670D02*
Y738670D01*
X628550D02*
X743050D01*
X628550Y711670D02*
Y738670D01*
Y711670D02*
X743050D01*
X1625700Y728610D02*
Y788110D01*
X1549700D02*
X1625700D01*
X1549700Y728610D02*
Y788110D01*
Y728610D02*
X1625700D01*
X975260Y739940D02*
X1089760D01*
Y712940D02*
Y739940D01*
X975260Y712940D02*
X1089760D01*
X975260D02*
Y739940D01*
Y759930D02*
X1089760D01*
X975260D02*
Y786930D01*
X1089760D01*
Y759930D02*
Y786930D01*
X944780Y514820D02*
Y541820D01*
Y514820D02*
X1059280D01*
Y541820D01*
X944780D02*
X1059280D01*
X944780Y437350D02*
Y464350D01*
Y437350D02*
X1059280D01*
Y464350D01*
X944780D02*
X1059280D01*
X944780Y476720D02*
X1059280D01*
X944780D02*
Y503720D01*
X1059280D01*
Y476720D02*
Y503720D01*
X864400Y460910D02*
Y575410D01*
X837400Y460910D02*
X864400D01*
X837400D02*
Y575410D01*
X864400D01*
X880580Y576680D02*
X907580D01*
X880580Y462180D02*
Y576680D01*
Y462180D02*
X907580D01*
Y576680D01*
X795490Y460910D02*
X822490D01*
Y575410D01*
X795490D02*
X822490D01*
X795490Y460910D02*
Y575410D01*
X504090Y728510D02*
X618590D01*
Y701510D02*
Y728510D01*
X504090Y701510D02*
X618590D01*
X504090D02*
Y728510D01*
X628550Y785660D02*
X743050D01*
Y758660D02*
Y785660D01*
X628550Y758660D02*
X743050D01*
X628550D02*
Y785660D01*
X350420Y658330D02*
X464920D01*
X350420D02*
Y685330D01*
X464920D01*
Y658330D02*
Y685330D01*
X349150Y704050D02*
X463650D01*
X349150D02*
Y731050D01*
X463650D01*
Y704050D02*
Y731050D01*
X536690Y531330D02*
Y558330D01*
Y531330D02*
X662190D01*
Y558330D01*
X536690D02*
X662190D01*
X535420Y483070D02*
Y510070D01*
Y483070D02*
X660920D01*
Y510070D01*
X535420D02*
X660920D01*
X1388380Y709940D02*
Y742940D01*
Y709940D02*
X1517380D01*
Y742940D01*
X1388380D02*
X1517380D01*
X1539680Y337965D02*
X1645680D01*
X1539680Y289965D02*
Y337965D01*
Y289965D02*
X1645680D01*
Y337965D01*
X1528840Y289965D02*
Y337965D01*
X1422840Y289965D02*
X1528840D01*
X1422840D02*
Y337965D01*
X1528840D01*
X842600Y738260D02*
X932860D01*
Y717160D02*
Y738260D01*
X842600Y717160D02*
X932860D01*
X842600D02*
Y738260D01*
D14*
X504400Y283660D02*
Y361160D01*
X360400D02*
X504400D01*
X360400Y283660D02*
Y361160D01*
Y283660D02*
X504400D01*
X1343740Y670560D02*
X1353740D01*
X1348740Y665560D02*
Y675560D01*
X1120140Y665560D02*
Y675560D01*
X1115140Y670560D02*
X1125140D01*
X774980Y377640D02*
Y455140D01*
X630980D02*
X774980D01*
X630980Y377640D02*
Y455140D01*
Y377640D02*
X774980D01*
X1348740Y547450D02*
Y557450D01*
X1343740Y552450D02*
X1353740D01*
X1177290Y665560D02*
Y675560D01*
X1172290Y670560D02*
X1182290D01*
X1291590Y665560D02*
Y675560D01*
X1286590Y670560D02*
X1296590D01*
X1234440Y665560D02*
Y675560D01*
X1229440Y670560D02*
X1239440D01*
X1291590Y547450D02*
Y557450D01*
X1286590Y552450D02*
X1296590D01*
X1234440Y547450D02*
Y557450D01*
X1229440Y552450D02*
X1239440D01*
X1177290Y547450D02*
Y557450D01*
X1172290Y552450D02*
X1182290D01*
X1120140Y547450D02*
Y557450D01*
X1115140Y552450D02*
X1125140D01*
X872570Y640080D02*
X882570D01*
X877570Y635080D02*
Y645080D01*
X1230630Y312500D02*
Y322500D01*
X1225630Y317500D02*
X1235630D01*
X1355090Y312500D02*
Y322500D01*
X1350090Y317500D02*
X1360090D01*
X341630Y593170D02*
Y603170D01*
X336630Y598170D02*
X346630D01*
X391240D02*
X401240D01*
X396240Y593170D02*
Y603170D01*
X454660Y593170D02*
Y603170D01*
X449660Y598170D02*
X459660D01*
D82*
X392390Y438490D02*
Y493690D01*
X311190Y438490D02*
X392390D01*
X311190D02*
Y493690D01*
X392390D01*
X911380Y292140D02*
X991080D01*
Y360640D01*
X911380D02*
X991080D01*
X911380Y292140D02*
Y360640D01*
X1666520Y723220D02*
X1718520D01*
X1666520Y612820D02*
Y723220D01*
Y612820D02*
X1718520D01*
Y723220D01*
X1328690Y631460D02*
Y709660D01*
Y631460D02*
X1368790D01*
Y709660D01*
X1328690D02*
X1368790D01*
X1511220Y509310D02*
Y615910D01*
X1412320D02*
X1511220D01*
X1412320Y509310D02*
Y615910D01*
Y509310D02*
X1511220D01*
X1656120Y375440D02*
X1724620D01*
X1656120D02*
Y455140D01*
X1724620D01*
Y375440D02*
Y455140D01*
X1579920Y374170D02*
X1648420D01*
X1579920D02*
Y453870D01*
X1648420D01*
Y374170D02*
Y453870D01*
X605400Y370538D02*
X815500D01*
X605400Y275537D02*
Y370538D01*
Y275537D02*
X815500D01*
Y370538D01*
X969050Y591750D02*
Y690950D01*
X1075650D01*
Y591750D02*
Y690950D01*
X969050Y591750D02*
X1075650D01*
X1100090Y709660D02*
X1140190D01*
Y631460D02*
Y709660D01*
X1100090Y631460D02*
X1140190D01*
X1100090D02*
Y709660D01*
X1328690Y591550D02*
X1368790D01*
Y513350D02*
Y591550D01*
X1328690Y513350D02*
X1368790D01*
X1328690D02*
Y591550D01*
X1157240Y709660D02*
X1197340D01*
Y631460D02*
Y709660D01*
X1157240Y631460D02*
X1197340D01*
X1157240D02*
Y709660D01*
X1271540D02*
X1311640D01*
Y631460D02*
Y709660D01*
X1271540Y631460D02*
X1311640D01*
X1271540D02*
Y709660D01*
X1214390D02*
X1254490D01*
Y631460D02*
Y709660D01*
X1214390Y631460D02*
X1254490D01*
X1214390D02*
Y709660D01*
X1271540Y591550D02*
X1311640D01*
Y513350D02*
Y591550D01*
X1271540Y513350D02*
X1311640D01*
X1271540D02*
Y591550D01*
X1214390D02*
X1254490D01*
Y513350D02*
Y591550D01*
X1214390Y513350D02*
X1254490D01*
X1214390D02*
Y591550D01*
X1157240D02*
X1197340D01*
Y513350D02*
Y591550D01*
X1157240Y513350D02*
X1197340D01*
X1157240D02*
Y591550D01*
X1100090D02*
X1140190D01*
Y513350D02*
Y591550D01*
X1100090Y513350D02*
X1140190D01*
X1100090D02*
Y591550D01*
X1718520Y485820D02*
Y596220D01*
X1666520Y485820D02*
X1718520D01*
X1666520D02*
Y596220D01*
X1718520D01*
X824070Y591580D02*
Y688580D01*
X931070Y591580D02*
Y688580D01*
X824070Y591580D02*
X931070D01*
X824070Y688580D02*
X931070D01*
X1176630Y341800D02*
X1284630D01*
X1176630Y288300D02*
X1284630D01*
Y341800D01*
X1176630Y288300D02*
Y341800D01*
X1301090D02*
X1409090D01*
X1301090Y288300D02*
X1409090D01*
Y341800D01*
X1301090Y288300D02*
Y341800D01*
X998670Y304130D02*
Y353730D01*
X999490Y304130D02*
X1036720D01*
X998670Y353730D02*
X1036720D01*
Y304130D02*
Y353730D01*
X671210Y465690D02*
X771510D01*
Y564890D01*
X671210D02*
X771510D01*
X671210Y465690D02*
Y564890D01*
X676290Y587940D02*
Y687140D01*
X776590D01*
Y587940D02*
Y687140D01*
X676290Y587940D02*
X776590D01*
X528970Y586670D02*
Y685870D01*
X629270D01*
Y586670D02*
Y685870D01*
X528970Y586670D02*
X629270D01*
X321580Y559070D02*
X361680D01*
X321580D02*
Y637270D01*
X361680D01*
Y559070D02*
Y637270D01*
X416290Y559070D02*
Y637270D01*
X376190D02*
X416290D01*
X376190Y559070D02*
Y637270D01*
Y559070D02*
X416290D01*
X434610Y559070D02*
X474710D01*
X434610D02*
Y637270D01*
X474710D01*
Y559070D02*
Y637270D01*
M02*
