G04*
G04 #@! TF.GenerationSoftware,Altium Limited,Altium Designer,23.3.1 (30)*
G04*
G04 Layer_Color=65535*
%FSLAX44Y44*%
%MOMM*%
G71*
G04*
G04 #@! TF.SameCoordinates,EAF1F0D8-16AB-4789-B3CC-ED1B898C5CC7*
G04*
G04*
G04 #@! TF.FilePolarity,Positive*
G04*
G01*
G75*
%ADD10C,0.2500*%
%ADD11C,0.1500*%
%ADD12C,0.6000*%
%ADD13C,0.2000*%
%ADD14C,0.1000*%
%ADD15C,0.2540*%
G36*
X401969Y777813D02*
X401867Y777915D01*
X401816Y778017D01*
X401536Y778450D01*
X401332Y778501D01*
X401154Y778323D01*
X401103Y777966D01*
X401154Y777610D01*
X401179Y751303D01*
X401129Y751099D01*
X401052Y751023D01*
X401027Y750947D01*
X400619Y750845D01*
X400263Y750896D01*
X394864Y750845D01*
X389847Y750870D01*
X389058Y750845D01*
X388905Y750896D01*
X387249Y750870D01*
X387071Y750998D01*
X386995Y751074D01*
X387020Y751762D01*
X386995Y752602D01*
X387046Y752653D01*
X386995Y752806D01*
X387046Y802057D01*
X387224Y802235D01*
X387580Y802287D01*
X387733Y802235D01*
X388217Y802261D01*
X398735Y802235D01*
X398887Y802287D01*
X399702Y802235D01*
X400364Y802185D01*
X400466Y802083D01*
X400543Y802057D01*
X400899Y801395D01*
X401078Y801268D01*
X401154Y801191D01*
X401205Y801089D01*
X401561Y800631D01*
X401663Y800529D01*
X401816Y800275D01*
X402020Y800071D01*
X402071Y799969D01*
X402173Y799867D01*
X402224Y799765D01*
X402453Y799485D01*
X402529Y799409D01*
X402580Y799307D01*
X402733Y799154D01*
X402784Y799052D01*
X403038Y798798D01*
X403089Y798696D01*
X403446Y798237D01*
X403548Y798136D01*
X403599Y798034D01*
X403802Y797677D01*
X404159Y797321D01*
X404210Y797219D01*
X404465Y796964D01*
X404515Y796862D01*
X404770Y796506D01*
X404796Y796429D01*
X404897Y796378D01*
X405025Y796251D01*
X405280Y795793D01*
X405534Y795538D01*
X405585Y795436D01*
X405840Y795079D01*
X406094Y794825D01*
X406145Y794723D01*
X406400Y794367D01*
X406655Y794112D01*
X406706Y794010D01*
X406935Y793730D01*
X407138Y793424D01*
X407266Y793246D01*
X407520Y792991D01*
X407571Y792889D01*
X407826Y792533D01*
X408030Y792329D01*
X408259Y791947D01*
X408361Y791896D01*
X408488Y791769D01*
X408539Y791667D01*
X409278Y790674D01*
X409507Y790445D01*
X409558Y790343D01*
X410271Y789426D01*
X410424Y789273D01*
X410475Y789171D01*
X410806Y788688D01*
X411035Y788458D01*
X411086Y788356D01*
X411239Y788204D01*
X411289Y788102D01*
X411391Y788000D01*
X411442Y787898D01*
X411671Y787618D01*
X411901Y787389D01*
X412104Y787032D01*
X412257Y786879D01*
X412308Y786778D01*
X412410Y786676D01*
X412461Y786574D01*
X412614Y786421D01*
X412665Y786319D01*
X412868Y786115D01*
X413072Y785759D01*
X413148Y785683D01*
X413250Y785632D01*
X413378Y785504D01*
X413581Y785148D01*
X413658Y785071D01*
X413760Y785020D01*
X414040Y784587D01*
X414193Y784435D01*
X414244Y784333D01*
X414345Y784231D01*
X414498Y783976D01*
X414727Y783696D01*
X414804Y783620D01*
X415008Y783263D01*
X415364Y782907D01*
X415568Y782550D01*
X415771Y782346D01*
X415822Y782245D01*
X415924Y782143D01*
X415975Y782041D01*
X416204Y781761D01*
X416510Y781302D01*
X416612Y781251D01*
X416790Y781073D01*
X416994Y780717D01*
X417299Y780411D01*
X417503Y780054D01*
X417758Y779800D01*
X417809Y779698D01*
X417911Y779596D01*
X417962Y779494D01*
X418267Y779189D01*
X418471Y778832D01*
X418777Y778527D01*
X418828Y778425D01*
X419439Y777610D01*
X419693Y777355D01*
X419744Y777253D01*
X419999Y776897D01*
X420254Y776642D01*
X420457Y776285D01*
X420610Y776133D01*
X420661Y776031D01*
X420865Y775674D01*
X420941Y775598D01*
X421196Y775649D01*
X421323Y775980D01*
X421272Y777253D01*
X421298Y801064D01*
X421221Y801650D01*
X421272Y801803D01*
X421425Y802057D01*
X421552Y802185D01*
X421756Y802235D01*
X435126Y802261D01*
X435304Y802185D01*
X435381Y802108D01*
X435431Y801905D01*
X435381Y750972D01*
X435304Y750896D01*
X435100Y750845D01*
X434133Y750896D01*
X433929Y750845D01*
X432936Y750870D01*
X425882Y750845D01*
X425729Y750896D01*
X424659Y750845D01*
X424506Y750896D01*
X423157Y750870D01*
X422902Y750972D01*
X422698Y751176D01*
X422647Y751278D01*
X421909Y752271D01*
X421833Y752347D01*
X421782Y752449D01*
X421680Y752551D01*
X421629Y752653D01*
X421272Y753009D01*
X421068Y753366D01*
X420865Y753570D01*
X420814Y753672D01*
X420712Y753773D01*
X420661Y753875D01*
X420432Y754155D01*
X420355Y754232D01*
X420304Y754334D01*
X420050Y754690D01*
X419795Y754945D01*
X419744Y755047D01*
X419515Y755327D01*
X419337Y755505D01*
X419184Y755760D01*
X418929Y756014D01*
X418777Y756269D01*
X418547Y756549D01*
X418369Y756728D01*
X418165Y757084D01*
X417860Y757390D01*
X417656Y757746D01*
X417350Y758052D01*
X417147Y758408D01*
X416892Y758663D01*
X416841Y758765D01*
X416128Y759682D01*
X415924Y759885D01*
X415721Y760242D01*
X415415Y760547D01*
X415364Y760649D01*
X415262Y760751D01*
X415211Y760853D01*
X414957Y761108D01*
X414906Y761210D01*
X414651Y761566D01*
X414167Y762203D01*
X414040Y762330D01*
X413989Y762432D01*
X413632Y762890D01*
X413480Y763043D01*
X413429Y763145D01*
X413327Y763247D01*
X413276Y763349D01*
X413021Y763603D01*
X412766Y764062D01*
X412588Y764189D01*
X412512Y764266D01*
X412308Y764622D01*
X412003Y764928D01*
X411850Y765182D01*
X411544Y765488D01*
X411493Y765590D01*
X411264Y765972D01*
X411162Y766023D01*
X410984Y766201D01*
X410933Y766303D01*
X410449Y766939D01*
X410322Y767118D01*
X410169Y767271D01*
X410118Y767372D01*
X410016Y767474D01*
X409965Y767576D01*
X409863Y767678D01*
X409813Y767780D01*
X409609Y767984D01*
X409558Y768085D01*
X409456Y768187D01*
X409405Y768289D01*
X409201Y768493D01*
X409150Y768595D01*
X409049Y768697D01*
X408998Y768799D01*
X408768Y769079D01*
X408692Y769155D01*
X408641Y769257D01*
X408157Y769893D01*
X408030Y770021D01*
X407979Y770123D01*
X407750Y770403D01*
X407622Y770530D01*
X407571Y770632D01*
X407215Y771090D01*
X407062Y771243D01*
X407011Y771345D01*
X406527Y771982D01*
X406451Y772058D01*
X406400Y772160D01*
X406094Y772466D01*
X406044Y772568D01*
X405687Y773026D01*
X405432Y773382D01*
X405381Y773484D01*
X405127Y773739D01*
X405076Y773841D01*
X404363Y774758D01*
X404261Y774859D01*
X404210Y774961D01*
X403955Y775318D01*
X403777Y775445D01*
X403701Y775521D01*
X403650Y775623D01*
X403395Y775980D01*
X403242Y776133D01*
X403191Y776235D01*
X402835Y776693D01*
X402733Y776795D01*
X402529Y777151D01*
X402351Y777330D01*
X402249Y777381D01*
X401994Y777788D01*
X401969Y777813D01*
D02*
G37*
G36*
X438150Y795431D02*
X438125Y800703D01*
X438150Y801289D01*
X438099Y801441D01*
X438150Y802104D01*
X438379Y802384D01*
X438583Y802435D01*
X451189Y802460D01*
X451724Y802435D01*
X451876Y802486D01*
X452156Y802409D01*
X452335Y802282D01*
X452411Y802205D01*
X452462Y801849D01*
X452411Y801645D01*
X452436Y751349D01*
X452233Y751146D01*
X451825Y751044D01*
X450246Y751095D01*
X449890Y751044D01*
X439372Y751069D01*
X438736Y751044D01*
X438583Y751095D01*
X438328Y751146D01*
X438099Y751375D01*
X438125Y752572D01*
X438099Y753056D01*
X438150Y753209D01*
X438099Y754227D01*
X438150Y754380D01*
Y795380D01*
Y795431D01*
D02*
G37*
G36*
X470866Y786466D02*
X470892Y788631D01*
X470841Y788885D01*
X470713Y789063D01*
X470586Y789191D01*
X469618Y789140D01*
X457777Y789165D01*
X456020Y789140D01*
X455765Y789293D01*
X455688Y789369D01*
X455587Y789725D01*
X455638Y790846D01*
X455587Y792425D01*
X455638Y792578D01*
X455612Y801414D01*
X455765Y801669D01*
X455969Y801720D01*
X500382Y801669D01*
X500560Y801542D01*
X500611Y801338D01*
X500560Y800676D01*
X500585Y791636D01*
X500560Y790133D01*
X500611Y789980D01*
X500534Y789496D01*
X500407Y789318D01*
X500331Y789242D01*
X500127Y789191D01*
X499312Y789140D01*
X485356Y789089D01*
X485178Y788911D01*
X485127Y788554D01*
X485153Y750686D01*
X485000Y750431D01*
X484643Y750329D01*
X483981Y750380D01*
X479805Y750329D01*
X473617Y750355D01*
X472929Y750329D01*
X472776Y750380D01*
X470994Y750431D01*
X470866Y750559D01*
X470841Y751806D01*
X470866Y786415D01*
Y786466D01*
D02*
G37*
G36*
X577262Y793038D02*
X578943Y792987D01*
X579095Y792936D01*
X579579Y792859D01*
X579783Y792808D01*
X580292Y792707D01*
X580598Y792656D01*
X581006Y792605D01*
X581718Y792554D01*
X582024Y792503D01*
X582228Y792452D01*
X582661Y792274D01*
X583170Y792121D01*
X583756Y792044D01*
X583960Y791993D01*
X584342Y791815D01*
X584596Y791713D01*
X584953Y791611D01*
X585157Y791561D01*
X585564Y791510D01*
X585844Y791281D01*
X586175Y791153D01*
X586608Y791077D01*
X586786Y791000D01*
X587092Y790797D01*
X587448Y790695D01*
X587932Y790517D01*
X588009Y790440D01*
X588111Y790389D01*
X588365Y790236D01*
X588849Y790058D01*
X589027Y789931D01*
X589333Y789727D01*
X589588Y789625D01*
X589919Y789498D01*
X590097Y789320D01*
X590199Y789269D01*
X590759Y788963D01*
X590912Y788810D01*
X591472Y788505D01*
X591676Y788301D01*
X591778Y788250D01*
X592134Y788046D01*
X592644Y787690D01*
X592745Y787639D01*
X593102Y787282D01*
X593560Y787028D01*
X593688Y786849D01*
X593815Y786722D01*
X594070Y786569D01*
X594197Y786442D01*
X594248Y786340D01*
X594553Y786136D01*
X595394Y785296D01*
X595496Y785245D01*
X595623Y785118D01*
X595674Y785016D01*
X596642Y784048D01*
X596693Y783946D01*
X596820Y783819D01*
X596922Y783768D01*
X597049Y783590D01*
X597278Y783310D01*
X597508Y783080D01*
X597559Y782979D01*
X597788Y782698D01*
X597915Y782571D01*
X597966Y782469D01*
X598170Y782113D01*
X598399Y781833D01*
X598475Y781756D01*
X598679Y781400D01*
X598755Y781272D01*
X598832Y781247D01*
X598883Y781145D01*
X599188Y780585D01*
X599443Y780330D01*
X599545Y780075D01*
X599799Y779617D01*
X599901Y779515D01*
X600564Y778140D01*
X601022Y777172D01*
X601098Y776892D01*
X601353Y776485D01*
X601480Y776154D01*
X601633Y775593D01*
X601888Y775033D01*
X601990Y774626D01*
X602040Y774218D01*
X602346Y773556D01*
X602397Y773352D01*
X602473Y772868D01*
X602575Y772257D01*
X602754Y771672D01*
X602855Y771264D01*
X602906Y770908D01*
X602957Y770704D01*
X603008Y769430D01*
X603059Y769278D01*
X603136Y768488D01*
X603186Y768081D01*
X603263Y766578D01*
X603186Y765229D01*
X603136Y764668D01*
X603085Y764057D01*
X603008Y762962D01*
X602957Y762809D01*
X602906Y761892D01*
X602855Y761740D01*
X602728Y761205D01*
X602524Y760390D01*
X602473Y760084D01*
X602422Y759626D01*
X602372Y759422D01*
X602142Y758887D01*
X601939Y758073D01*
X601760Y757589D01*
X601531Y757054D01*
X601429Y756697D01*
X601302Y756366D01*
X601073Y755984D01*
X600971Y755577D01*
X600869Y755322D01*
X600614Y754966D01*
X600538Y754686D01*
X600436Y754431D01*
X600182Y754024D01*
X599876Y753412D01*
X599799Y753336D01*
X599749Y753234D01*
X599647Y753132D01*
X599596Y753030D01*
X599290Y752470D01*
X599086Y752165D01*
X598781Y751604D01*
X598628Y751451D01*
X598424Y751095D01*
X598119Y750789D01*
X597864Y750331D01*
X597609Y750076D01*
X597559Y749974D01*
X597406Y749822D01*
X597355Y749720D01*
X597151Y749516D01*
X597100Y749414D01*
X596947Y749261D01*
X596896Y749159D01*
X596744Y749058D01*
X596693Y748956D01*
X596591Y748854D01*
X596540Y748752D01*
X596362Y748574D01*
X596260Y748523D01*
X596132Y748395D01*
X596082Y748294D01*
X595852Y748014D01*
X595750Y747962D01*
X595572Y747784D01*
X595521Y747682D01*
X595394Y747555D01*
X595292Y747504D01*
X595063Y747275D01*
X595012Y747173D01*
X594834Y747046D01*
X594426Y746638D01*
X594324Y746587D01*
X593866Y746129D01*
X593764Y746078D01*
X593662Y745976D01*
X593560Y745925D01*
X593357Y745722D01*
X593255Y745671D01*
X592822Y745390D01*
X592796Y745314D01*
X592694Y745263D01*
X592593Y745161D01*
X592491Y745110D01*
X592211Y744881D01*
X592083Y744754D01*
X591523Y744448D01*
X591268Y744194D01*
X590708Y743888D01*
X590555Y743735D01*
X590301Y743633D01*
X590097Y743582D01*
X589817Y743353D01*
X589740Y743277D01*
X589486Y743175D01*
X589282Y743124D01*
X589002Y742895D01*
X588926Y742818D01*
X588671Y742717D01*
X588340Y742589D01*
X588162Y742462D01*
X587601Y742207D01*
X587194Y742054D01*
X586786Y741800D01*
X586379Y741698D01*
X586048Y741621D01*
X585768Y741443D01*
X585666Y741341D01*
X585335Y741265D01*
X584775Y741163D01*
X584520Y741061D01*
X583883Y740781D01*
X583527Y740730D01*
X582941Y740654D01*
X582686Y740552D01*
X582508Y740475D01*
X582253Y740374D01*
X581846Y740272D01*
X581082Y740221D01*
X581056Y740195D01*
X580751Y740144D01*
X580496Y740094D01*
X580292Y740043D01*
X580038Y739992D01*
X579834Y739941D01*
X579223Y739839D01*
X578612Y739788D01*
X577109Y739712D01*
X572271Y739762D01*
X572118Y739813D01*
X571507Y739864D01*
X571354Y739915D01*
X571023Y739992D01*
X570412Y740094D01*
X570208Y740144D01*
X569953Y740195D01*
X569036Y740297D01*
X568782Y740348D01*
X568374Y740501D01*
X568094Y740628D01*
X567890Y740679D01*
X567305Y740756D01*
X566897Y740857D01*
X566362Y741087D01*
X565955Y741189D01*
X565675Y741265D01*
X565420Y741367D01*
X565089Y741545D01*
X564580Y741698D01*
X564300Y741774D01*
X564045Y741876D01*
X563969Y741953D01*
X563867Y742003D01*
X563510Y742156D01*
X563256Y742258D01*
X562797Y742513D01*
X562441Y742666D01*
X561065Y743379D01*
X560964Y743481D01*
X560862Y743531D01*
X560403Y743786D01*
X560302Y743888D01*
X560200Y743939D01*
X560098Y744041D01*
X559538Y744346D01*
X559334Y744550D01*
X558773Y744856D01*
X558519Y745110D01*
X558417Y745161D01*
X558086Y745390D01*
X558060Y745467D01*
X557959Y745518D01*
X557857Y745620D01*
X557755Y745671D01*
X557475Y745900D01*
X557296Y746078D01*
X557195Y746129D01*
X557067Y746205D01*
X557016Y746307D01*
X556838Y746536D01*
X556482Y746740D01*
X556405Y746817D01*
X556354Y746918D01*
X556176Y747097D01*
X556074Y747148D01*
X555616Y747606D01*
X555514Y747657D01*
X554674Y748497D01*
X554623Y748599D01*
X554393Y748879D01*
X554266Y749058D01*
X554062Y749261D01*
X554011Y749363D01*
X553706Y749669D01*
X553655Y749771D01*
X553298Y750229D01*
X553145Y750382D01*
X552891Y750840D01*
X552585Y751146D01*
X552382Y751502D01*
X552280Y751604D01*
X552229Y751706D01*
X552025Y752012D01*
X551974Y752113D01*
X551872Y752215D01*
X551821Y752317D01*
X551669Y752572D01*
X551465Y752928D01*
X551210Y753285D01*
X550981Y753922D01*
X550803Y754100D01*
X550752Y754202D01*
X550548Y754660D01*
X550472Y754940D01*
X550268Y755246D01*
X550140Y755526D01*
X550064Y755857D01*
X549962Y756112D01*
X549886Y756188D01*
X549835Y756290D01*
X549682Y756646D01*
X549606Y756927D01*
X549555Y757130D01*
X549402Y757538D01*
X549275Y757818D01*
X549173Y758175D01*
X549071Y758582D01*
X548969Y759040D01*
X548765Y759346D01*
X548714Y759550D01*
X548638Y760288D01*
X548587Y760543D01*
X548485Y760950D01*
X548358Y761383D01*
X548307Y761587D01*
X548256Y761944D01*
X548205Y762147D01*
X548129Y763242D01*
X547950Y766425D01*
X548001Y767393D01*
X548052Y767546D01*
X548103Y769278D01*
X548154Y769430D01*
X548205Y770449D01*
X548256Y770602D01*
X548307Y771111D01*
X548358Y771264D01*
X548460Y771672D01*
X548562Y772028D01*
X548613Y772232D01*
X548689Y772716D01*
X548740Y773021D01*
X548791Y773225D01*
X548944Y773632D01*
X549071Y773963D01*
X549173Y774575D01*
X549249Y774855D01*
X549427Y775135D01*
X549580Y775491D01*
X549657Y775873D01*
X549809Y776281D01*
X549937Y776408D01*
X549988Y776510D01*
X550090Y776765D01*
X550140Y776969D01*
X550268Y777299D01*
X550472Y777605D01*
X550650Y778038D01*
X550701Y778242D01*
X551057Y778802D01*
X551185Y779133D01*
X551261Y779311D01*
X551516Y779668D01*
X551821Y780228D01*
X551923Y780330D01*
X552178Y780788D01*
X552407Y781068D01*
X552763Y781629D01*
X553145Y782164D01*
X553196Y782265D01*
X553349Y782418D01*
X553502Y782673D01*
X553960Y783131D01*
X554113Y783386D01*
X554419Y783691D01*
X554470Y783793D01*
X554750Y784175D01*
X554852Y784226D01*
X554928Y784303D01*
X554979Y784405D01*
X555208Y784634D01*
X555310Y784685D01*
X555539Y784914D01*
X555590Y785016D01*
X555820Y785245D01*
X555921Y785296D01*
X555998Y785372D01*
X556049Y785474D01*
X556227Y785652D01*
X556329Y785703D01*
X556609Y785984D01*
X556634Y786060D01*
X556736Y786111D01*
X557016Y786340D01*
X557347Y786671D01*
X557449Y786722D01*
X557780Y786951D01*
X557806Y787028D01*
X557908Y787078D01*
X558010Y787180D01*
X558111Y787231D01*
X558391Y787460D01*
X558570Y787639D01*
X558926Y787842D01*
X559130Y788046D01*
X559792Y788403D01*
X559996Y788606D01*
X560454Y788861D01*
X560556Y788963D01*
X560658Y789014D01*
X560964Y789218D01*
X561422Y789472D01*
X561880Y789676D01*
X562237Y789880D01*
X562390Y790033D01*
X562670Y790109D01*
X562924Y790211D01*
X563230Y790415D01*
X563510Y790542D01*
X563994Y790720D01*
X564172Y790797D01*
X564478Y791000D01*
X564758Y791077D01*
X565165Y791179D01*
X565420Y791281D01*
X565751Y791459D01*
X566108Y791561D01*
X566515Y791663D01*
X566846Y791739D01*
X567483Y792019D01*
X568094Y792121D01*
X568578Y792197D01*
X568833Y792299D01*
X569266Y792477D01*
X570513Y792656D01*
X571074Y792707D01*
X571328Y792757D01*
X571736Y792859D01*
X572347Y792961D01*
X572907Y793012D01*
X574079Y793063D01*
X577109Y793089D01*
X577262Y793038D01*
D02*
G37*
G36*
X530218Y801615D02*
X530370Y801564D01*
X531185Y801514D01*
X531338Y801463D01*
X531822Y801386D01*
X532077Y801335D01*
X532688Y801284D01*
X532994Y801233D01*
X533248Y801182D01*
X533961Y801132D01*
X534165Y801081D01*
X534420Y800979D01*
X534751Y800851D01*
X535158Y800750D01*
X535744Y800673D01*
X535998Y800622D01*
X536432Y800444D01*
X537094Y800240D01*
X537297Y800189D01*
X537577Y800113D01*
X538112Y799833D01*
X538316Y799782D01*
X538876Y799578D01*
X539182Y799374D01*
X539436Y799273D01*
X539717Y799196D01*
X539971Y799094D01*
X540099Y798967D01*
X540200Y798916D01*
X540302Y798814D01*
X540786Y798636D01*
X540863Y798559D01*
X540964Y798509D01*
X541117Y798356D01*
X541576Y798101D01*
X541779Y797897D01*
X542238Y797643D01*
X542365Y797515D01*
X542416Y797413D01*
X542849Y797133D01*
X543205Y796777D01*
X543307Y796726D01*
X543715Y796318D01*
X543817Y796267D01*
X544097Y796038D01*
X544148Y795936D01*
X544250Y795835D01*
X544275Y795758D01*
X544377Y795707D01*
X544708Y795376D01*
X544759Y795274D01*
X545115Y794816D01*
X545319Y794510D01*
X545370Y794408D01*
X545625Y794154D01*
X545676Y794052D01*
X546109Y793415D01*
X546287Y793084D01*
X546541Y792626D01*
X546643Y792524D01*
X546745Y792269D01*
X546796Y792066D01*
X546923Y791734D01*
X546974Y791684D01*
X547000Y791658D01*
X547051Y791556D01*
X547255Y791098D01*
X547331Y790767D01*
X547484Y790359D01*
X547713Y789825D01*
X547815Y789213D01*
X547866Y789010D01*
X547917Y788653D01*
X548120Y788347D01*
X548171Y787838D01*
X548222Y787176D01*
X548273Y786972D01*
X548324Y785801D01*
X548375Y785648D01*
X548426Y783764D01*
X548375Y783407D01*
X548324Y781981D01*
X548273Y781828D01*
X548222Y780657D01*
X548171Y780504D01*
X548120Y780300D01*
X548044Y779867D01*
X547942Y779613D01*
X547815Y779180D01*
X547764Y778823D01*
X547637Y778288D01*
X547560Y778110D01*
X547305Y777550D01*
X547255Y777346D01*
X547178Y777015D01*
X547000Y776735D01*
X546898Y776633D01*
X546796Y776277D01*
X546720Y775996D01*
X546516Y775691D01*
X546389Y775564D01*
X546261Y775232D01*
X546007Y774825D01*
X545879Y774698D01*
X545625Y774239D01*
X545472Y774087D01*
X545421Y773985D01*
X545319Y773883D01*
X545115Y773526D01*
X544861Y773272D01*
X544657Y772915D01*
X544530Y772788D01*
X544428Y772737D01*
X544199Y772508D01*
X544148Y772406D01*
X543842Y772100D01*
X543791Y771998D01*
X543486Y771795D01*
X543282Y771591D01*
X543231Y771489D01*
X542925Y771285D01*
X542722Y771081D01*
X542696Y771005D01*
X542594Y770954D01*
X542238Y770750D01*
X541932Y770445D01*
X541678Y770343D01*
X541576Y770292D01*
X541168Y769885D01*
X540812Y769681D01*
X540659Y769528D01*
X540404Y769426D01*
X539946Y769172D01*
X539844Y769070D01*
X539513Y768942D01*
X539258Y768840D01*
X538978Y768662D01*
X538672Y768458D01*
X538367Y768408D01*
X538138Y768280D01*
X538087Y768076D01*
X538163Y767796D01*
X538290Y767669D01*
X538341Y767567D01*
X538494Y767414D01*
X538545Y767312D01*
X538647Y767211D01*
X538698Y767109D01*
X538902Y766803D01*
X539131Y766421D01*
X539233Y766370D01*
X539309Y766294D01*
X539411Y766039D01*
X539666Y765581D01*
X539818Y765479D01*
X539869Y765377D01*
X540124Y765021D01*
X540277Y764868D01*
X540582Y764307D01*
X540786Y764104D01*
X541092Y763543D01*
X541194Y763442D01*
X541245Y763340D01*
X541448Y762983D01*
X541703Y762729D01*
X541754Y762627D01*
X542060Y762066D01*
X542212Y761914D01*
X542263Y761812D01*
X542518Y761455D01*
X542569Y761353D01*
X542772Y761150D01*
X543027Y760691D01*
X543282Y760437D01*
X543536Y759978D01*
X543638Y759876D01*
X543689Y759774D01*
X543791Y759673D01*
X543995Y759316D01*
X544199Y759112D01*
X544250Y759010D01*
X544504Y758552D01*
X544606Y758450D01*
X544657Y758348D01*
X544759Y758247D01*
X544963Y757890D01*
X545192Y757610D01*
X545472Y757177D01*
X545625Y757024D01*
X545676Y756922D01*
X545981Y756362D01*
X546185Y756158D01*
X546236Y756057D01*
X546440Y755700D01*
X546669Y755420D01*
X546873Y755114D01*
X547000Y754936D01*
X547102Y754834D01*
X547153Y754732D01*
X547407Y754274D01*
X547662Y754019D01*
X547968Y753459D01*
X548120Y753306D01*
X548171Y753204D01*
X548375Y752848D01*
X548579Y752644D01*
X548630Y752542D01*
X548961Y752058D01*
X549088Y751931D01*
X549394Y751371D01*
X549496Y751269D01*
X549547Y751167D01*
X549648Y751065D01*
X549852Y750709D01*
X550005Y750556D01*
X550056Y750454D01*
X550311Y750046D01*
X550361Y749945D01*
X550616Y749690D01*
X550871Y749231D01*
X551024Y749079D01*
X551074Y748977D01*
X551278Y748671D01*
X551329Y748569D01*
X551533Y748366D01*
X551838Y747805D01*
X552042Y747602D01*
X552093Y747500D01*
X552297Y747143D01*
X552399Y747041D01*
X552450Y746940D01*
X552551Y746838D01*
X552603Y746736D01*
X552857Y746277D01*
X553112Y746023D01*
X553163Y745819D01*
X553392Y745539D01*
X553570Y745361D01*
X553825Y744902D01*
X553978Y744750D01*
X554029Y744648D01*
X554232Y744291D01*
X554334Y744189D01*
X554385Y744087D01*
X554538Y743935D01*
X554589Y743833D01*
X554920Y743349D01*
X555047Y743222D01*
X555302Y742763D01*
X556015Y741745D01*
X556168Y741490D01*
X556371Y741286D01*
X556422Y741184D01*
X556677Y740726D01*
X557186Y740013D01*
X557237Y739911D01*
X557339Y739809D01*
X557390Y739707D01*
X557721Y739223D01*
X557899Y739045D01*
X558001Y738790D01*
X558231Y738408D01*
X558332Y738357D01*
X558562Y737975D01*
X558613Y737874D01*
X558867Y737619D01*
X558918Y737517D01*
X559147Y737084D01*
X559249Y737033D01*
X559529Y736753D01*
X559580Y736549D01*
X559529Y736295D01*
X559402Y736167D01*
X559045Y736116D01*
X558383Y736167D01*
X557034Y736142D01*
X556448Y736167D01*
X556295Y736116D01*
X543104Y736167D01*
X542874Y736397D01*
X542696Y736880D01*
X542416Y737161D01*
X542365Y737262D01*
X542161Y737619D01*
X541907Y737874D01*
X541805Y738128D01*
X541448Y738638D01*
X541397Y738739D01*
X541066Y739223D01*
X540990Y739300D01*
X540786Y739656D01*
X540430Y740166D01*
X540226Y740522D01*
X539920Y740981D01*
X539793Y741311D01*
X539462Y741643D01*
X539258Y741999D01*
X539156Y742101D01*
X539105Y742203D01*
X538902Y742559D01*
X538672Y742840D01*
X538596Y742916D01*
X538545Y743018D01*
X538214Y743502D01*
X538138Y743578D01*
X538087Y743680D01*
X537832Y744138D01*
X537603Y744418D01*
X537374Y744800D01*
X537323Y744902D01*
X537170Y745055D01*
X537119Y745157D01*
X536915Y745514D01*
X536457Y746176D01*
X536304Y746430D01*
X536049Y746787D01*
X535846Y747143D01*
X535617Y747423D01*
X535387Y747805D01*
X535336Y747907D01*
X535133Y748111D01*
X535082Y748213D01*
X534827Y748671D01*
X534674Y748824D01*
X534623Y748926D01*
X534292Y749410D01*
X534165Y749537D01*
X533859Y750097D01*
X533707Y750250D01*
X533656Y750352D01*
X533401Y750810D01*
X533248Y750963D01*
X533197Y751065D01*
X532943Y751473D01*
X532892Y751574D01*
X532739Y751727D01*
X532688Y751829D01*
X532484Y752135D01*
X532331Y752389D01*
X532229Y752491D01*
X532179Y752593D01*
X531873Y753153D01*
X531669Y753357D01*
X531415Y753815D01*
X531262Y753968D01*
X531007Y754427D01*
X530778Y754707D01*
X530549Y755089D01*
X530498Y755191D01*
X530294Y755394D01*
X530243Y755496D01*
X530039Y755853D01*
X529810Y756133D01*
X529581Y756515D01*
X529530Y756617D01*
X529174Y757126D01*
X528970Y757483D01*
X528715Y757839D01*
X528512Y758196D01*
X528308Y758399D01*
X528002Y758960D01*
X527849Y759112D01*
X527798Y759214D01*
X527595Y759571D01*
X527493Y759673D01*
X527442Y759774D01*
X527289Y759927D01*
X527034Y760386D01*
X526933Y760488D01*
X526882Y760589D01*
X526780Y760691D01*
X526576Y761048D01*
X526423Y761201D01*
X526372Y761302D01*
X526118Y761761D01*
X525965Y761914D01*
X525914Y762016D01*
X525710Y762372D01*
X525456Y762729D01*
X525252Y763034D01*
X525201Y763136D01*
X524743Y763798D01*
X524539Y764155D01*
X524386Y764307D01*
X524080Y764868D01*
X523953Y764995D01*
X523851Y765046D01*
X523724Y765326D01*
X523520Y765683D01*
X523444Y765759D01*
X523240Y765810D01*
X520439Y765861D01*
X517536Y765810D01*
X517306Y765632D01*
X517154Y765275D01*
X517128Y751090D01*
X517230Y750836D01*
X517256Y750556D01*
X517128Y750428D01*
X516874Y750327D01*
X516517Y750276D01*
X514913Y750301D01*
X514480Y750276D01*
X514327Y750327D01*
X511678Y750276D01*
X505286Y750301D01*
X505006Y750276D01*
X504853Y750327D01*
X503020Y750378D01*
X502842Y750556D01*
X502816Y750887D01*
X502867Y800750D01*
X502892Y800877D01*
X502842Y801030D01*
X502892Y801488D01*
X502969Y801564D01*
X503326Y801666D01*
X530218Y801615D01*
D02*
G37*
G36*
X1372250Y558455D02*
X1373218Y558404D01*
X1373447Y558225D01*
X1373498Y557920D01*
X1373447Y557767D01*
X1373498Y557410D01*
X1373447Y557156D01*
X1373320Y557028D01*
X1372963Y556926D01*
X1371893Y556875D01*
X1371715Y556697D01*
X1371766Y555730D01*
X1371715Y554711D01*
X1371766Y554558D01*
X1371792Y553005D01*
X1371741Y552750D01*
X1371639Y552597D01*
X1371231Y552495D01*
X1370213Y552546D01*
X1370034Y552674D01*
X1369933Y553030D01*
X1369984Y553998D01*
X1369933Y554151D01*
X1369984Y555067D01*
X1369933Y555220D01*
X1369984Y555882D01*
X1369933Y556239D01*
X1369984Y556392D01*
X1370009Y556621D01*
X1369933Y556799D01*
X1369856Y556875D01*
X1369653Y556926D01*
X1369296Y556977D01*
X1369143Y556926D01*
X1368532Y556977D01*
X1368354Y557105D01*
X1368252Y557512D01*
X1368303Y558174D01*
X1368430Y558353D01*
X1368685Y558455D01*
X1372199D01*
X1372250D01*
D02*
G37*
G36*
X1380631Y558037D02*
X1380885Y558139D01*
X1382235Y558164D01*
X1382413Y558088D01*
X1382541Y557961D01*
X1382592Y557706D01*
X1382541Y557553D01*
X1382490Y556891D01*
X1382541Y556687D01*
X1382515Y555847D01*
X1382541Y552613D01*
X1382490Y552460D01*
X1382337Y552205D01*
X1382006Y552180D01*
X1381853Y552231D01*
X1381089Y552282D01*
X1380911Y552460D01*
X1380860Y552664D01*
X1380911Y553479D01*
X1380962Y553835D01*
X1380911Y553988D01*
X1380860Y554548D01*
X1380911Y554701D01*
X1380962Y554905D01*
X1380911Y555159D01*
X1380733Y555185D01*
X1380656Y555108D01*
X1380605Y555007D01*
X1380325Y554726D01*
X1380223Y554675D01*
X1380096Y554548D01*
X1380020Y554217D01*
X1379841Y553937D01*
X1379637Y553733D01*
X1379587Y553631D01*
X1379408Y553453D01*
X1379205Y553504D01*
X1379128Y553581D01*
X1379077Y553682D01*
X1378873Y553988D01*
X1378823Y554090D01*
X1378619Y554395D01*
X1378568Y554599D01*
X1378339Y554879D01*
X1378033Y555032D01*
X1377906Y554956D01*
X1377855Y554752D01*
X1377906Y553631D01*
X1377855Y552460D01*
X1377728Y552333D01*
X1377473Y552231D01*
X1376352Y552282D01*
X1376276Y552358D01*
X1376174Y552613D01*
X1376200Y553199D01*
X1376174Y556433D01*
X1376225Y556586D01*
X1376200Y557935D01*
X1376301Y558088D01*
X1376658Y558190D01*
X1377244Y558164D01*
X1377880Y558190D01*
X1378161Y557961D01*
X1378364Y557604D01*
X1378517Y557451D01*
X1378619Y557197D01*
X1378823Y556840D01*
X1379026Y556636D01*
X1379154Y556305D01*
X1379256Y556153D01*
X1379510Y556203D01*
X1379688Y556382D01*
X1380045Y557044D01*
X1380503Y557706D01*
X1380554Y557910D01*
X1380605Y558012D01*
X1380631Y558037D01*
D02*
G37*
%LPC*%
G36*
X574359Y780203D02*
X574206Y780152D01*
X573773Y780075D01*
X573467Y780024D01*
X573213Y779974D01*
X573009Y779922D01*
X571787Y779719D01*
X571532Y779617D01*
X571252Y779490D01*
X570997Y779388D01*
X570794Y779337D01*
X570437Y779286D01*
X570157Y779057D01*
X570030Y778929D01*
X569826Y778878D01*
X569418Y778726D01*
X569062Y778471D01*
X568807Y778369D01*
X568451Y778165D01*
X568196Y777911D01*
X567840Y777707D01*
X567636Y777503D01*
X567381Y777350D01*
X567152Y777121D01*
X567127Y777045D01*
X567025Y776994D01*
X566923Y776892D01*
X566821Y776841D01*
X566464Y776485D01*
X566362Y776434D01*
X566133Y776255D01*
X566082Y776154D01*
X565929Y776001D01*
X565879Y775899D01*
X565624Y775542D01*
X565547Y775466D01*
X565446Y775415D01*
X565318Y775288D01*
X565115Y774931D01*
X564962Y774778D01*
X564911Y774677D01*
X564605Y774116D01*
X564351Y773760D01*
X564274Y773480D01*
X564020Y773072D01*
X563841Y772639D01*
X563663Y772155D01*
X563536Y771977D01*
X563383Y771621D01*
X563332Y771417D01*
X563256Y771035D01*
X562976Y770398D01*
X562899Y770016D01*
X562823Y769329D01*
X562772Y768972D01*
X562721Y768768D01*
X562644Y768488D01*
X562593Y768285D01*
X562542Y767368D01*
X562492Y766909D01*
X562466Y766629D01*
X562517Y766476D01*
X562568Y764847D01*
X562619Y764694D01*
X562670Y764490D01*
X562772Y763879D01*
X562823Y763522D01*
X562874Y763013D01*
X562924Y762809D01*
X563001Y762427D01*
X563281Y761842D01*
X563332Y761485D01*
X563383Y761281D01*
X563485Y761027D01*
X563739Y760670D01*
X563816Y760390D01*
X564020Y759830D01*
X564096Y759753D01*
X564147Y759651D01*
X564351Y759193D01*
X564554Y758837D01*
X564758Y758633D01*
X565013Y758175D01*
X565115Y758073D01*
X565165Y757971D01*
X565267Y757869D01*
X565497Y757487D01*
X565598Y757436D01*
X565726Y757258D01*
X565828Y757156D01*
X565980Y756901D01*
X566235Y756646D01*
X566286Y756545D01*
X566464Y756366D01*
X566566Y756315D01*
X567330Y755551D01*
X567432Y755500D01*
X567534Y755399D01*
X567636Y755348D01*
X567890Y755093D01*
X568247Y754889D01*
X568960Y754380D01*
X569164Y754329D01*
X569724Y753973D01*
X569928Y753922D01*
X570208Y753692D01*
X570335Y753565D01*
X570539Y753514D01*
X570895Y753463D01*
X571150Y753412D01*
X571812Y753107D01*
X572220Y753005D01*
X572704Y752928D01*
X572958Y752878D01*
X573162Y752827D01*
X573926Y752674D01*
X574130Y752623D01*
X574944Y752572D01*
X576498Y752546D01*
X576651Y752597D01*
X577644Y752674D01*
X578230Y752852D01*
X578433Y752903D01*
X578968Y752979D01*
X579223Y753030D01*
X579427Y753081D01*
X579936Y753285D01*
X580267Y753412D01*
X580547Y753489D01*
X580955Y753642D01*
X581082Y753769D01*
X581184Y753820D01*
X581438Y753922D01*
X581769Y754049D01*
X581948Y754176D01*
X582100Y754329D01*
X582355Y754431D01*
X582457Y754482D01*
X582737Y754711D01*
X582814Y754788D01*
X582915Y754838D01*
X583399Y755170D01*
X583578Y755297D01*
X583858Y755526D01*
X584087Y755755D01*
X584189Y755806D01*
X584571Y756188D01*
X584622Y756290D01*
X585004Y756672D01*
X585106Y756723D01*
X585233Y756850D01*
X585284Y756952D01*
X585640Y757411D01*
X585793Y757563D01*
X585844Y757665D01*
X586073Y757945D01*
X586302Y758327D01*
X586506Y758684D01*
X586659Y758837D01*
X586761Y759091D01*
X587015Y759550D01*
X587219Y760008D01*
X587347Y760339D01*
X587448Y760594D01*
X587678Y760976D01*
X587881Y761791D01*
Y761842D01*
X588136Y762402D01*
X588187Y762758D01*
X588238Y762962D01*
X588314Y763548D01*
X588365Y764159D01*
X588467Y764668D01*
X588518Y764872D01*
X588569Y765178D01*
X588594Y766986D01*
X588544Y767139D01*
X588493Y768055D01*
X588442Y768208D01*
X588365Y768641D01*
X588314Y769048D01*
X588263Y769507D01*
X588212Y769812D01*
X588162Y770016D01*
X588060Y770271D01*
X587830Y771009D01*
X587729Y771417D01*
X587678Y771722D01*
X587372Y772232D01*
X587270Y772639D01*
X587168Y772894D01*
X586914Y773148D01*
X586761Y773505D01*
X586659Y773760D01*
X586430Y774040D01*
X586048Y774727D01*
X585946Y774829D01*
X585895Y774931D01*
X585691Y775288D01*
X585564Y775415D01*
X585462Y775466D01*
X585386Y775542D01*
X585182Y775899D01*
X585004Y776026D01*
X584775Y776255D01*
X584724Y776357D01*
X584545Y776485D01*
X584316Y776714D01*
X584265Y776816D01*
X584189Y776892D01*
X584087Y776943D01*
X583807Y777172D01*
X583679Y777299D01*
X583578Y777350D01*
X583119Y777809D01*
X582559Y778114D01*
X582406Y778267D01*
X581948Y778522D01*
X581744Y778726D01*
X581489Y778828D01*
X581107Y778904D01*
X580700Y779159D01*
X580267Y779337D01*
X579936Y779413D01*
X579707Y779490D01*
X579248Y779693D01*
X578841Y779795D01*
X578484Y779846D01*
X578281Y779897D01*
X577746Y779974D01*
X577237Y780024D01*
X576931Y780075D01*
X576676Y780126D01*
X576371Y780177D01*
X574359Y780203D01*
D02*
G37*
G36*
X517536Y789392D02*
X517256Y789163D01*
X517154Y788755D01*
X517205Y777448D01*
X517383Y777117D01*
X517587Y777066D01*
X523851D01*
X527875Y777117D01*
X528028Y777168D01*
X528690Y777219D01*
X528894Y777270D01*
X529454Y777321D01*
X530116Y777626D01*
X530320Y777677D01*
X530600Y777754D01*
X530854Y777856D01*
X531033Y777983D01*
X531695Y778339D01*
X531949Y778594D01*
X532408Y778849D01*
X532535Y778976D01*
X532586Y779078D01*
X532713Y779205D01*
X532815Y779256D01*
X532994Y779383D01*
X533299Y779944D01*
X533503Y780249D01*
X533630Y780580D01*
X533910Y781217D01*
X533987Y781548D01*
X534038Y781803D01*
X534089Y782312D01*
X534140Y782974D01*
X534165Y783356D01*
X534114Y783509D01*
X534038Y784757D01*
X533987Y785012D01*
X533605Y785852D01*
X533427Y786336D01*
X533350Y786412D01*
X533299Y786514D01*
X533197Y786616D01*
X533146Y786718D01*
X532790Y787176D01*
X532612Y787303D01*
X532382Y787533D01*
X532331Y787635D01*
X532255Y787711D01*
X532153Y787762D01*
X532051Y787864D01*
X531593Y788118D01*
X531389Y788322D01*
X531033Y788475D01*
X530752Y788551D01*
X530498Y788653D01*
X530065Y788882D01*
X529658Y788984D01*
X529199Y789035D01*
X528944Y789137D01*
X528588Y789188D01*
X528155Y789264D01*
X527849Y789315D01*
X527340Y789366D01*
X517536Y789392D01*
D02*
G37*
%LPD*%
D10*
X820773Y327660D02*
G03*
X820773Y327660I-1250J0D01*
G01*
X513760Y398950D02*
G03*
X513760Y398950I-1250J0D01*
G01*
X1349990Y625960D02*
G03*
X1349990Y625960I-1250J0D01*
G01*
X1130280Y380100D02*
G03*
X1130280Y380100I-1250J0D01*
G01*
X1121390Y625960D02*
G03*
X1121390Y625960I-1250J0D01*
G01*
X310560Y398950D02*
G03*
X310560Y398950I-1250J0D01*
G01*
X412160D02*
G03*
X412160Y398950I-1250J0D01*
G01*
X801350Y701540D02*
G03*
X801350Y701540I-1250J0D01*
G01*
X509950Y325290D02*
G03*
X509950Y325290I-1250J0D01*
G01*
X1191610Y753110D02*
G03*
X1191610Y753110I-1250J0D01*
G01*
X793360Y417830D02*
G03*
X793360Y417830I-1250J0D01*
G01*
X902580Y403860D02*
G03*
X902580Y403860I-1250J0D01*
G01*
X1090415Y414520D02*
G03*
X1090415Y414520I-1250J0D01*
G01*
X1361301Y456700D02*
G03*
X1361301Y456700I-1250J0D01*
G01*
X1349990Y507850D02*
G03*
X1349990Y507850I-1250J0D01*
G01*
X1178540Y625960D02*
G03*
X1178540Y625960I-1250J0D01*
G01*
X1292840D02*
G03*
X1292840Y625960I-1250J0D01*
G01*
X1235690D02*
G03*
X1235690Y625960I-1250J0D01*
G01*
X1292840Y507850D02*
G03*
X1292840Y507850I-1250J0D01*
G01*
X1235690D02*
G03*
X1235690Y507850I-1250J0D01*
G01*
X1178540D02*
G03*
X1178540Y507850I-1250J0D01*
G01*
X1121390D02*
G03*
X1121390Y507850I-1250J0D01*
G01*
X1632700Y753110D02*
G03*
X1632700Y753110I-1250J0D01*
G01*
X929920Y678180D02*
G03*
X929920Y678180I-1250J0D01*
G01*
X1289880Y317500D02*
G03*
X1289880Y317500I-1250J0D01*
G01*
X1414340D02*
G03*
X1414340Y317500I-1250J0D01*
G01*
X1650930Y319715D02*
G03*
X1650930Y319715I-1250J0D01*
G01*
X1534090D02*
G03*
X1534090Y319715I-1250J0D01*
G01*
X342880Y642770D02*
G03*
X342880Y642770I-1250J0D01*
G01*
X397490D02*
G03*
X397490Y642770I-1250J0D01*
G01*
X455910D02*
G03*
X455910Y642770I-1250J0D01*
G01*
D11*
X1624920Y657860D02*
G03*
X1624920Y657860I-42500J0D01*
G01*
X1457280Y443230D02*
G03*
X1457280Y443230I-42500J0D01*
G01*
X1624920Y553720D02*
G03*
X1624920Y553720I-42500J0D01*
G01*
X1565230Y443230D02*
G03*
X1565230Y443230I-42500J0D01*
G01*
D12*
X921570Y656580D02*
G03*
X921570Y656580I-3000J0D01*
G01*
D13*
X928570Y646430D02*
G03*
X928570Y633730I0J-6350D01*
G01*
X1023470Y352730D02*
G03*
X1023470Y305130I0J-23800D01*
G01*
X389890Y478790D02*
Y491190D01*
X313690D02*
X389890D01*
X313690Y440990D02*
Y491190D01*
Y440990D02*
X377190D01*
X826273Y293660D02*
Y351160D01*
Y293660D02*
X900273D01*
Y351160D01*
X826273D02*
X900273D01*
X519260Y364950D02*
Y422450D01*
Y364950D02*
X593260D01*
Y422450D01*
X519260D02*
X593260D01*
X925830Y358140D02*
X988580D01*
Y294640D02*
Y358140D01*
X913880Y294640D02*
X988580D01*
X913880D02*
Y326390D01*
X860930Y776380D02*
X864930D01*
X910530D02*
X914530D01*
X902730Y767830D02*
Y784930D01*
X910530Y766830D02*
Y785930D01*
X864930D02*
X910530D01*
X864930Y766830D02*
Y785930D01*
Y766830D02*
X910530D01*
X1549670Y632860D02*
Y682860D01*
X1684020Y720720D02*
X1716020D01*
Y615320D02*
Y720720D01*
X1669020Y615320D02*
X1716020D01*
X1329690Y708660D02*
X1367790D01*
Y632460D02*
Y708660D01*
X1329690Y632460D02*
X1367790D01*
X1329690D02*
Y708660D01*
X1406110Y670560D02*
X1412610D01*
X1490610D02*
X1497110D01*
X1490610Y655060D02*
Y686060D01*
X1412610D02*
X1490610D01*
X1412610Y655060D02*
Y686060D01*
Y655060D02*
X1490610D01*
X1428770Y613410D02*
X1494770D01*
X1428770Y511810D02*
X1507120D01*
X1389780Y475980D02*
X1439780D01*
X1557420Y586470D02*
X1607420D01*
X1152530Y299350D02*
Y373350D01*
X1095030Y299350D02*
X1152530D01*
X1095030D02*
Y373350D01*
X1152530D01*
X1690370Y377940D02*
X1722120D01*
Y452640D01*
X1658620D02*
X1722120D01*
X1658620Y389890D02*
Y452640D01*
X1614170Y376670D02*
X1645920D01*
Y451370D01*
X1582420D02*
X1645920D01*
X1582420Y388620D02*
Y451370D01*
X813000Y278037D02*
Y336487D01*
X607900Y278037D02*
X813000D01*
X607900D02*
Y368037D01*
X762000D01*
X971550Y595850D02*
Y676900D01*
X1073150Y605800D02*
Y676900D01*
X973070Y552650D02*
Y577650D01*
Y552650D02*
X1036070D01*
Y577650D01*
X973070D02*
X1036070D01*
X1101090Y632460D02*
Y708660D01*
Y632460D02*
X1139190D01*
Y708660D01*
X1101090D02*
X1139190D01*
X316060Y422450D02*
X390060D01*
Y364950D02*
Y422450D01*
X316060Y364950D02*
X390060D01*
X316060D02*
Y422450D01*
X417660Y422450D02*
X491660D01*
Y364950D02*
Y422450D01*
X417660Y364950D02*
X491660D01*
X417660D02*
Y422450D01*
X776600Y708290D02*
Y782290D01*
X834100D01*
Y708290D02*
Y782290D01*
X776600Y708290D02*
X834100D01*
X515450Y348790D02*
X589450D01*
Y291290D02*
Y348790D01*
X515450Y291290D02*
X589450D01*
X515450D02*
Y348790D01*
X1109610Y729610D02*
X1183610D01*
X1109610D02*
Y787110D01*
X1183610D01*
Y729610D02*
Y787110D01*
X798860Y441330D02*
X872860D01*
Y383830D02*
Y441330D01*
X798860Y383830D02*
X872860D01*
X798860D02*
Y441330D01*
X908080Y427360D02*
X982080D01*
Y369860D02*
Y427360D01*
X908080Y369860D02*
X982080D01*
X908080D02*
Y427360D01*
X1350415Y401701D02*
Y426339D01*
X1098145D02*
X1350415D01*
X1098145Y401701D02*
Y426339D01*
Y401701D02*
X1350415D01*
X1098801Y444881D02*
Y469519D01*
Y444881D02*
X1351071D01*
Y469519D01*
X1098801D02*
X1351071D01*
X1329690Y514350D02*
Y590550D01*
Y514350D02*
X1367790D01*
Y590550D01*
X1329690D02*
X1367790D01*
X1158240Y632460D02*
Y708660D01*
Y632460D02*
X1196340D01*
Y708660D01*
X1158240D02*
X1196340D01*
X1272540Y632460D02*
Y708660D01*
Y632460D02*
X1310640D01*
Y708660D01*
X1272540D02*
X1310640D01*
X1215390Y632460D02*
Y708660D01*
Y632460D02*
X1253490D01*
Y708660D01*
X1215390D02*
X1253490D01*
X1272540Y514350D02*
Y590550D01*
Y514350D02*
X1310640D01*
Y590550D01*
X1272540D02*
X1310640D01*
X1215390Y514350D02*
Y590550D01*
Y514350D02*
X1253490D01*
Y590550D01*
X1215390D02*
X1253490D01*
X1158240Y514350D02*
Y590550D01*
Y514350D02*
X1196340D01*
Y590550D01*
X1158240D02*
X1196340D01*
X1101090Y514350D02*
Y590550D01*
Y514350D02*
X1139190D01*
Y590550D01*
X1101090D02*
X1139190D01*
X717300Y712670D02*
Y737670D01*
X654300D02*
X717300D01*
X654300Y712670D02*
Y737670D01*
Y712670D02*
X717300D01*
X1669020Y488320D02*
X1716020D01*
Y593720D01*
X1684020D02*
X1716020D01*
X1624700Y729610D02*
Y787110D01*
X1550700D02*
X1624700D01*
X1550700Y729610D02*
Y787110D01*
Y729610D02*
X1624700D01*
X826570Y613580D02*
Y666580D01*
X928570Y613580D02*
Y633730D01*
Y646430D02*
Y666580D01*
X826570Y613580D02*
X928570D01*
X826570Y666580D02*
X928570D01*
X1001010Y738940D02*
X1064010D01*
Y713940D02*
Y738940D01*
X1001010Y713940D02*
X1064010D01*
X1001010D02*
Y738940D01*
Y760930D02*
X1064010D01*
X1001010D02*
Y785930D01*
X1064010D01*
Y760930D02*
Y785930D01*
X970530Y515820D02*
Y540820D01*
Y515820D02*
X1033530D01*
Y540820D01*
X970530D02*
X1033530D01*
X970530Y438350D02*
Y463350D01*
Y438350D02*
X1033530D01*
Y463350D01*
X970530D02*
X1033530D01*
X970530Y477720D02*
X1033530D01*
X970530D02*
Y502720D01*
X1033530D01*
Y477720D02*
Y502720D01*
X863400Y486660D02*
Y549660D01*
X838400Y486660D02*
X863400D01*
X838400D02*
Y549660D01*
X863400D01*
X881580Y550930D02*
X906580D01*
X881580Y487930D02*
Y550930D01*
Y487930D02*
X906580D01*
Y550930D01*
X796490Y486660D02*
X821490D01*
Y549660D01*
X796490D02*
X821490D01*
X796490Y486660D02*
Y549660D01*
X529840Y727510D02*
X592840D01*
Y702510D02*
Y727510D01*
X529840Y702510D02*
X592840D01*
X529840D02*
Y727510D01*
X654300Y784660D02*
X717300D01*
Y759660D02*
Y784660D01*
X654300Y759660D02*
X717300D01*
X654300D02*
Y784660D01*
X376170Y659330D02*
X439170D01*
X376170D02*
Y684330D01*
X439170D01*
Y659330D02*
Y684330D01*
X374900Y705050D02*
X437900D01*
X374900D02*
Y730050D01*
X437900D01*
Y705050D02*
Y730050D01*
X637540Y544830D02*
X643690D01*
X555190D02*
X561340D01*
Y532330D02*
Y557330D01*
Y532330D02*
X637540D01*
Y557330D01*
X561340D02*
X637540D01*
X636270Y496570D02*
X642420D01*
X553920D02*
X560070D01*
Y484070D02*
Y509070D01*
Y484070D02*
X636270D01*
Y509070D01*
X560070D02*
X636270D01*
X1491880Y726440D02*
X1498380D01*
X1407380D02*
X1413880D01*
Y710940D02*
Y741940D01*
Y710940D02*
X1491880D01*
Y741940D01*
X1413880D02*
X1491880D01*
X1282130Y290550D02*
Y339550D01*
X1179130Y290550D02*
Y339550D01*
X1282130D01*
X1179130Y290550D02*
X1282130D01*
X1179130Y295550D02*
X1282130D01*
X1406590Y290550D02*
Y339550D01*
X1303590Y290550D02*
Y339550D01*
X1406590D01*
X1303590Y290550D02*
X1406590D01*
X1303590Y295550D02*
X1406590D01*
X1023470Y352730D02*
X1035720D01*
Y305130D02*
Y352730D01*
X1023470Y305130D02*
X1035720D01*
X1545680Y336965D02*
X1639680D01*
X1540680Y290965D02*
X1545680Y336965D01*
X1639680D02*
X1644680Y290965D01*
X1540680D02*
X1644680D01*
X1423840D02*
X1527840D01*
X1522840Y336965D02*
X1527840Y290965D01*
X1423840D02*
X1428840Y336965D01*
X1522840D01*
X769010Y477840D02*
Y552740D01*
X673710Y469790D02*
Y552740D01*
X678790Y592040D02*
Y674990D01*
X774090Y600090D02*
Y674990D01*
X531470Y590770D02*
Y673720D01*
X626770Y598820D02*
Y673720D01*
X864930Y737260D02*
X910530D01*
Y718160D02*
Y737260D01*
X864930Y718160D02*
X910530D01*
X864930D02*
Y737260D01*
X872730Y719160D02*
Y736260D01*
X860930Y727710D02*
X864930D01*
X910530D02*
X914530D01*
X360680Y560070D02*
Y636270D01*
X322580D02*
X360680D01*
X322580Y560070D02*
Y636270D01*
Y560070D02*
X360680D01*
X377190D02*
X415290D01*
X377190D02*
Y636270D01*
X415290D01*
Y560070D02*
Y636270D01*
X473710Y560070D02*
Y636270D01*
X435610D02*
X473710D01*
X435610Y560070D02*
Y636270D01*
Y560070D02*
X473710D01*
X1497730Y410480D02*
X1547730D01*
D14*
X494400Y293660D02*
Y351160D01*
X370400D02*
X494400D01*
X370400Y293660D02*
Y351160D01*
Y293660D02*
X494400D01*
X764980Y387640D02*
Y445140D01*
X640980D02*
X764980D01*
X640980Y387640D02*
Y445140D01*
Y387640D02*
X764980D01*
D15*
X347981Y513078D02*
X345442Y515617D01*
X340363D01*
X337824Y513078D01*
Y510539D01*
X340363Y508000D01*
X345442D01*
X347981Y505461D01*
Y502922D01*
X345442Y500382D01*
X340363D01*
X337824Y502922D01*
X353059Y513078D02*
X355598Y515617D01*
X360677D01*
X363216Y513078D01*
Y510539D01*
X360677Y508000D01*
X358138D01*
X360677D01*
X363216Y505461D01*
Y502922D01*
X360677Y500382D01*
X355598D01*
X353059Y502922D01*
X597321Y810257D02*
X590550D01*
Y800100D01*
X597321D01*
X590550Y805178D02*
X593936D01*
X600707Y800100D02*
Y810257D01*
X607478Y800100D01*
Y810257D01*
X610863D02*
X617635D01*
X614249D01*
Y800100D01*
X627791Y808564D02*
X626099Y810257D01*
X622713D01*
X621020Y808564D01*
Y801793D01*
X622713Y800100D01*
X626099D01*
X627791Y801793D01*
X935994Y289557D02*
Y274322D01*
Y281940D01*
X946151D01*
Y289557D01*
Y274322D01*
X951229Y276862D02*
X953768Y274322D01*
X958847D01*
X961386Y276862D01*
Y287018D01*
X958847Y289557D01*
X953768D01*
X951229Y287018D01*
Y284479D01*
X953768Y281940D01*
X961386D01*
X676914Y740413D02*
Y755648D01*
X684532D01*
X687071Y753108D01*
Y748030D01*
X684532Y745491D01*
X676914D01*
X681992D02*
X687071Y740413D01*
X692149Y755648D02*
X702306D01*
Y753108D01*
X692149Y742952D01*
Y740413D01*
X697231Y462278D02*
X694692Y464818D01*
X689613D01*
X687074Y462278D01*
Y459739D01*
X689613Y457200D01*
X694692D01*
X697231Y454661D01*
Y452122D01*
X694692Y449582D01*
X689613D01*
X687074Y452122D01*
X712466Y449582D02*
X702309D01*
X712466Y459739D01*
Y462278D01*
X709927Y464818D01*
X704848D01*
X702309Y462278D01*
X431800Y289558D02*
X429261Y292097D01*
X424183D01*
X421643Y289558D01*
Y287019D01*
X424183Y284480D01*
X429261D01*
X431800Y281941D01*
Y279402D01*
X429261Y276863D01*
X424183D01*
X421643Y279402D01*
X436878Y276863D02*
X441957D01*
X439418D01*
Y292097D01*
X436878Y289558D01*
X849634Y374647D02*
Y359412D01*
Y367030D01*
X859791D01*
Y374647D01*
Y359412D01*
X864869Y372108D02*
X867408Y374647D01*
X872487D01*
X875026Y372108D01*
Y369569D01*
X872487Y367030D01*
X875026Y364491D01*
Y361952D01*
X872487Y359412D01*
X867408D01*
X864869Y361952D01*
Y364491D01*
X867408Y367030D01*
X864869Y369569D01*
Y372108D01*
X867408Y367030D02*
X872487D01*
X814079Y276863D02*
Y292097D01*
X819157Y287019D01*
X824235Y292097D01*
Y276863D01*
X829314D02*
Y287019D01*
X834392Y292097D01*
X839470Y287019D01*
Y276863D01*
Y284480D01*
X829314D01*
X844549Y292097D02*
X849627D01*
X847088D01*
Y276863D01*
X844549D01*
X849627D01*
X857245D02*
Y292097D01*
X867401Y276863D01*
Y292097D01*
X1657348Y626124D02*
Y631202D01*
Y628663D01*
X1642112D01*
X1644652Y626124D01*
X1657348Y648976D02*
Y638819D01*
X1647191Y648976D01*
X1644652D01*
X1642112Y646437D01*
Y641359D01*
X1644652Y638819D01*
X1642112Y654054D02*
X1652269D01*
X1657348Y659133D01*
X1652269Y664211D01*
X1642112D01*
X1657348Y669290D02*
X1642112D01*
Y676907D01*
X1644652Y679446D01*
X1649730D01*
X1652269Y676907D01*
Y669290D01*
Y674368D02*
X1657348Y679446D01*
Y692142D02*
Y687064D01*
X1654808Y684525D01*
X1649730D01*
X1647191Y687064D01*
Y692142D01*
X1649730Y694681D01*
X1652269D01*
Y684525D01*
X1644652Y709917D02*
X1642112Y707377D01*
Y702299D01*
X1644652Y699760D01*
X1654808D01*
X1657348Y702299D01*
Y707377D01*
X1654808Y709917D01*
X1649730D01*
Y704838D01*
X1652270Y485156D02*
Y495313D01*
X1659888Y500391D02*
Y505469D01*
Y502930D01*
X1644652D01*
X1647192Y500391D01*
X1659888Y523244D02*
Y513087D01*
X1649731Y523244D01*
X1647192D01*
X1644652Y520704D01*
Y515626D01*
X1647192Y513087D01*
X1644652Y528322D02*
X1654809D01*
X1659888Y533400D01*
X1654809Y538479D01*
X1644652D01*
X1659888Y543557D02*
X1644652D01*
Y551175D01*
X1647192Y553714D01*
X1652270D01*
X1654809Y551175D01*
Y543557D01*
Y548635D02*
X1659888Y553714D01*
Y566410D02*
Y561331D01*
X1657348Y558792D01*
X1652270D01*
X1649731Y561331D01*
Y566410D01*
X1652270Y568949D01*
X1654809D01*
Y558792D01*
X1647192Y584184D02*
X1644652Y581645D01*
Y576566D01*
X1647192Y574027D01*
X1657348D01*
X1659888Y576566D01*
Y581645D01*
X1657348Y584184D01*
X1652270D01*
Y579106D01*
X1529080Y787398D02*
X1524002D01*
X1526541D01*
Y774702D01*
X1524002Y772162D01*
X1521463D01*
X1518923Y774702D01*
X1534158Y772162D02*
X1539237D01*
X1536698D01*
Y787398D01*
X1534158Y784858D01*
X868683Y706117D02*
Y693422D01*
X871223Y690882D01*
X876301D01*
X878840Y693422D01*
Y706117D01*
X883918Y690882D02*
X888997D01*
X886458D01*
Y706117D01*
X883918Y703578D01*
X1242061Y393698D02*
X1239522Y396237D01*
X1234443D01*
X1231904Y393698D01*
Y391159D01*
X1234443Y388620D01*
X1239522D01*
X1242061Y386081D01*
Y383542D01*
X1239522Y381003D01*
X1234443D01*
X1231904Y383542D01*
X1247139Y396237D02*
Y381003D01*
X1252217Y386081D01*
X1257296Y381003D01*
Y396237D01*
X1045216Y537212D02*
Y552448D01*
X1052834D01*
X1055373Y549908D01*
Y544830D01*
X1052834Y542291D01*
X1045216D01*
X1050294D02*
X1055373Y537212D01*
X1060451D02*
X1065530D01*
X1062990D01*
Y552448D01*
X1060451Y549908D01*
X1073147D02*
X1075686Y552448D01*
X1080765D01*
X1083304Y549908D01*
Y547369D01*
X1080765Y544830D01*
X1083304Y542291D01*
Y539752D01*
X1080765Y537212D01*
X1075686D01*
X1073147Y539752D01*
Y542291D01*
X1075686Y544830D01*
X1073147Y547369D01*
Y549908D01*
X1075686Y544830D02*
X1080765D01*
X1013466Y741683D02*
Y756917D01*
X1021084D01*
X1023623Y754378D01*
Y749300D01*
X1021084Y746761D01*
X1013466D01*
X1018544D02*
X1023623Y741683D01*
X1028701D02*
X1033780D01*
X1031240D01*
Y756917D01*
X1028701Y754378D01*
X1041397Y756917D02*
X1051554D01*
Y754378D01*
X1041397Y744222D01*
Y741683D01*
X1013466Y792483D02*
Y807718D01*
X1021084D01*
X1023623Y805178D01*
Y800100D01*
X1021084Y797561D01*
X1013466D01*
X1018544D02*
X1023623Y792483D01*
X1028701D02*
X1033780D01*
X1031240D01*
Y807718D01*
X1028701Y805178D01*
X1051554Y807718D02*
X1046476Y805178D01*
X1041397Y800100D01*
Y795022D01*
X1043936Y792483D01*
X1049015D01*
X1051554Y795022D01*
Y797561D01*
X1049015Y800100D01*
X1041397D01*
X1043946Y501652D02*
Y516888D01*
X1051564D01*
X1054103Y514348D01*
Y509270D01*
X1051564Y506731D01*
X1043946D01*
X1049025D02*
X1054103Y501652D01*
X1059181D02*
X1064260D01*
X1061720D01*
Y516888D01*
X1059181Y514348D01*
X1082034Y516888D02*
X1071877D01*
Y509270D01*
X1076955Y511809D01*
X1079495D01*
X1082034Y509270D01*
Y504192D01*
X1079495Y501652D01*
X1074416D01*
X1071877Y504192D01*
X1046486Y424183D02*
Y439417D01*
X1054104D01*
X1056643Y436878D01*
Y431800D01*
X1054104Y429261D01*
X1046486D01*
X1051564D02*
X1056643Y424183D01*
X1061721D02*
X1066800D01*
X1064260D01*
Y439417D01*
X1061721Y436878D01*
X1082035Y424183D02*
Y439417D01*
X1074417Y431800D01*
X1084574D01*
X1043946Y466092D02*
Y481328D01*
X1051564D01*
X1054103Y478788D01*
Y473710D01*
X1051564Y471171D01*
X1043946D01*
X1049025D02*
X1054103Y466092D01*
X1059181D02*
X1064260D01*
X1061720D01*
Y481328D01*
X1059181Y478788D01*
X1071877D02*
X1074416Y481328D01*
X1079495D01*
X1082034Y478788D01*
Y476249D01*
X1079495Y473710D01*
X1076955D01*
X1079495D01*
X1082034Y471171D01*
Y468632D01*
X1079495Y466092D01*
X1074416D01*
X1071877Y468632D01*
X843286Y577853D02*
Y593088D01*
X850904D01*
X853443Y590548D01*
Y585470D01*
X850904Y582931D01*
X843286D01*
X848364D02*
X853443Y577853D01*
X858521D02*
X863600D01*
X861060D01*
Y593088D01*
X858521Y590548D01*
X881374Y577853D02*
X871217D01*
X881374Y588009D01*
Y590548D01*
X878835Y593088D01*
X873756D01*
X871217Y590548D01*
X904245Y575312D02*
Y590547D01*
X911863D01*
X914402Y588008D01*
Y582930D01*
X911863Y580391D01*
X904245D01*
X909324D02*
X914402Y575312D01*
X919480D02*
X924559D01*
X922020D01*
Y590547D01*
X919480Y588008D01*
X932176Y575312D02*
X937255D01*
X934715D01*
Y590547D01*
X932176Y588008D01*
X788676Y576582D02*
Y591818D01*
X796294D01*
X798833Y589278D01*
Y584200D01*
X796294Y581661D01*
X788676D01*
X793755D02*
X798833Y576582D01*
X803911D02*
X808990D01*
X806450D01*
Y591818D01*
X803911Y589278D01*
X816607D02*
X819146Y591818D01*
X824225D01*
X826764Y589278D01*
Y579122D01*
X824225Y576582D01*
X819146D01*
X816607Y579122D01*
Y589278D01*
X505464Y684532D02*
Y699768D01*
X513082D01*
X515621Y697228D01*
Y692150D01*
X513082Y689611D01*
X505464D01*
X510542D02*
X515621Y684532D01*
X520699Y687072D02*
X523238Y684532D01*
X528317D01*
X530856Y687072D01*
Y697228D01*
X528317Y699768D01*
X523238D01*
X520699Y697228D01*
Y694689D01*
X523238Y692150D01*
X530856D01*
X674374Y793753D02*
Y808988D01*
X681992D01*
X684531Y806448D01*
Y801370D01*
X681992Y798831D01*
X674374D01*
X679453D02*
X684531Y793753D01*
X689609Y806448D02*
X692148Y808988D01*
X697227D01*
X699766Y806448D01*
Y803909D01*
X697227Y801370D01*
X699766Y798831D01*
Y796292D01*
X697227Y793753D01*
X692148D01*
X689609Y796292D01*
Y798831D01*
X692148Y801370D01*
X689609Y803909D01*
Y806448D01*
X692148Y801370D02*
X697227D01*
X314964Y669293D02*
Y684528D01*
X322582D01*
X325121Y681988D01*
Y676910D01*
X322582Y674371D01*
X314964D01*
X320042D02*
X325121Y669293D01*
X340356Y684528D02*
X335277Y681988D01*
X330199Y676910D01*
Y671832D01*
X332738Y669293D01*
X337817D01*
X340356Y671832D01*
Y674371D01*
X337817Y676910D01*
X330199D01*
X317504Y708662D02*
Y723897D01*
X325122D01*
X327661Y721358D01*
Y716280D01*
X325122Y713741D01*
X317504D01*
X322583D02*
X327661Y708662D01*
X342896Y723897D02*
X332739D01*
Y716280D01*
X337817Y718819D01*
X340357D01*
X342896Y716280D01*
Y711202D01*
X340357Y708662D01*
X335278D01*
X332739Y711202D01*
X530864Y558802D02*
Y574038D01*
X538482D01*
X541021Y571498D01*
Y566420D01*
X538482Y563881D01*
X530864D01*
X535942D02*
X541021Y558802D01*
X553717D02*
Y574038D01*
X546099Y566420D01*
X556256D01*
X530864Y513083D02*
Y528317D01*
X538482D01*
X541021Y525778D01*
Y520700D01*
X538482Y518161D01*
X530864D01*
X535942D02*
X541021Y513083D01*
X546099Y525778D02*
X548638Y528317D01*
X553717D01*
X556256Y525778D01*
Y523239D01*
X553717Y520700D01*
X551177D01*
X553717D01*
X556256Y518161D01*
Y515622D01*
X553717Y513083D01*
X548638D01*
X546099Y515622D01*
X1440184Y756923D02*
Y772158D01*
X1447802D01*
X1450341Y769618D01*
Y764540D01*
X1447802Y762001D01*
X1440184D01*
X1445262D02*
X1450341Y756923D01*
X1465576D02*
X1455419D01*
X1465576Y767079D01*
Y769618D01*
X1463037Y772158D01*
X1457958D01*
X1455419Y769618D01*
X1440183Y692152D02*
Y707387D01*
X1447801D01*
X1450340Y704848D01*
Y699770D01*
X1447801Y697231D01*
X1440183D01*
X1445262D02*
X1450340Y692152D01*
X1455418D02*
X1460497D01*
X1457958D01*
Y707387D01*
X1455418Y704848D01*
X1226821Y347982D02*
Y358138D01*
X1224282Y360677D01*
X1219203D01*
X1216664Y358138D01*
Y347982D01*
X1219203Y345443D01*
X1224282D01*
X1221742Y350521D02*
X1226821Y345443D01*
X1224282D02*
X1226821Y347982D01*
X1242056Y360677D02*
X1231899D01*
Y353060D01*
X1236977Y355599D01*
X1239517D01*
X1242056Y353060D01*
Y347982D01*
X1239517Y345443D01*
X1234438D01*
X1231899Y347982D01*
X1358901Y349252D02*
Y359408D01*
X1356362Y361948D01*
X1351283D01*
X1348744Y359408D01*
Y349252D01*
X1351283Y346712D01*
X1356362D01*
X1353822Y351791D02*
X1358901Y346712D01*
X1356362D02*
X1358901Y349252D01*
X1371597Y346712D02*
Y361948D01*
X1363979Y354330D01*
X1374136D01*
X1018541Y360682D02*
Y370838D01*
X1016002Y373377D01*
X1010923D01*
X1008384Y370838D01*
Y360682D01*
X1010923Y358143D01*
X1016002D01*
X1013463Y363221D02*
X1018541Y358143D01*
X1016002D02*
X1018541Y360682D01*
X1023619Y370838D02*
X1026158Y373377D01*
X1031237D01*
X1033776Y370838D01*
Y368299D01*
X1031237Y365760D01*
X1028698D01*
X1031237D01*
X1033776Y363221D01*
Y360682D01*
X1031237Y358143D01*
X1026158D01*
X1023619Y360682D01*
X1583691Y350522D02*
Y360678D01*
X1581152Y363218D01*
X1576073D01*
X1573534Y360678D01*
Y350522D01*
X1576073Y347982D01*
X1581152D01*
X1578613Y353061D02*
X1583691Y347982D01*
X1581152D02*
X1583691Y350522D01*
X1598926Y347982D02*
X1588769D01*
X1598926Y358139D01*
Y360678D01*
X1596387Y363218D01*
X1591308D01*
X1588769Y360678D01*
X1471930Y347982D02*
Y358138D01*
X1469391Y360677D01*
X1464312D01*
X1461773Y358138D01*
Y347982D01*
X1464312Y345443D01*
X1469391D01*
X1466852Y350521D02*
X1471930Y345443D01*
X1469391D02*
X1471930Y347982D01*
X1477008Y345443D02*
X1482087D01*
X1479548D01*
Y360677D01*
X1477008Y358138D01*
X1230634Y429263D02*
Y444497D01*
X1238252D01*
X1240791Y441958D01*
Y436880D01*
X1238252Y434341D01*
X1230634D01*
X1245869Y444497D02*
Y429263D01*
X1250947Y434341D01*
X1256026Y429263D01*
Y444497D01*
X1673866Y476247D02*
X1668787D01*
X1671327D01*
Y463552D01*
X1668787Y461012D01*
X1666248D01*
X1663709Y463552D01*
X1686562Y476247D02*
X1681483D01*
X1678944Y473708D01*
Y463552D01*
X1681483Y461012D01*
X1686562D01*
X1689101Y463552D01*
Y473708D01*
X1686562Y476247D01*
X1694179D02*
Y463552D01*
X1696718Y461012D01*
X1701797D01*
X1704336Y463552D01*
Y476247D01*
X1709414D02*
X1719571D01*
X1714493D01*
Y461012D01*
X1120141Y294638D02*
X1115062D01*
X1117602D01*
Y281942D01*
X1115062Y279403D01*
X1112523D01*
X1109984Y281942D01*
X1125219Y294638D02*
Y279403D01*
X1135376D01*
X1600203Y477518D02*
X1595125D01*
X1597664D01*
Y464822D01*
X1595125Y462282D01*
X1592585D01*
X1590046Y464822D01*
X1605281Y477518D02*
X1610360D01*
X1607820D01*
Y462282D01*
X1605281D01*
X1610360D01*
X1617977D02*
Y477518D01*
X1628134Y462282D01*
Y477518D01*
X1009656Y707387D02*
X1014734D01*
X1012195D01*
Y692152D01*
X1009656D01*
X1014734D01*
X1032509Y704848D02*
X1029970Y707387D01*
X1024891D01*
X1022352Y704848D01*
Y694692D01*
X1024891Y692152D01*
X1029970D01*
X1032509Y694692D01*
X1047744Y707387D02*
X1037587D01*
Y699770D01*
X1042665Y702309D01*
X1045205D01*
X1047744Y699770D01*
Y694692D01*
X1045205Y692152D01*
X1040126D01*
X1037587Y694692D01*
X713746Y584198D02*
X718824D01*
X716285D01*
Y568963D01*
X713746D01*
X718824D01*
X736599Y581658D02*
X734060Y584198D01*
X728981D01*
X726442Y581658D01*
Y571502D01*
X728981Y568963D01*
X734060D01*
X736599Y571502D01*
X749295Y568963D02*
Y584198D01*
X741677Y576580D01*
X751834D01*
X709936Y706117D02*
X715014D01*
X712475D01*
Y690882D01*
X709936D01*
X715014D01*
X732789Y703578D02*
X730250Y706117D01*
X725171D01*
X722632Y703578D01*
Y693422D01*
X725171Y690882D01*
X730250D01*
X732789Y693422D01*
X737867Y703578D02*
X740406Y706117D01*
X745485D01*
X748024Y703578D01*
Y701039D01*
X745485Y698500D01*
X742945D01*
X745485D01*
X748024Y695961D01*
Y693422D01*
X745485Y690882D01*
X740406D01*
X737867Y693422D01*
X590556Y582928D02*
X595634D01*
X593095D01*
Y567692D01*
X590556D01*
X595634D01*
X613409Y580388D02*
X610870Y582928D01*
X605791D01*
X603252Y580388D01*
Y570232D01*
X605791Y567692D01*
X610870D01*
X613409Y570232D01*
X628644Y567692D02*
X618487D01*
X628644Y577849D01*
Y580388D01*
X626105Y582928D01*
X621026D01*
X618487Y580388D01*
X1443995Y637537D02*
X1449074D01*
X1446534D01*
Y622303D01*
X1443995D01*
X1449074D01*
X1466848Y634998D02*
X1464309Y637537D01*
X1459230D01*
X1456691Y634998D01*
Y624842D01*
X1459230Y622303D01*
X1464309D01*
X1466848Y624842D01*
X1471926Y622303D02*
X1477005D01*
X1474465D01*
Y637537D01*
X1471926Y634998D01*
X897896Y452118D02*
Y436883D01*
Y444500D01*
X908053D01*
Y452118D01*
Y436883D01*
X913131D02*
X918210D01*
X915670D01*
Y452118D01*
X913131Y449578D01*
X925827D02*
X928366Y452118D01*
X933445D01*
X935984Y449578D01*
Y439422D01*
X933445Y436883D01*
X928366D01*
X925827Y439422D01*
Y449578D01*
X788674Y693418D02*
Y678183D01*
Y685800D01*
X798831D01*
Y693418D01*
Y678183D01*
X803909Y693418D02*
X814066D01*
Y690878D01*
X803909Y680722D01*
Y678183D01*
X1135384Y810257D02*
Y795023D01*
Y802640D01*
X1145541D01*
Y810257D01*
Y795023D01*
X1160776Y810257D02*
X1155697Y807718D01*
X1150619Y802640D01*
Y797562D01*
X1153158Y795023D01*
X1158237D01*
X1160776Y797562D01*
Y800101D01*
X1158237Y802640D01*
X1150619D01*
X817884Y461007D02*
Y445773D01*
Y453390D01*
X828041D01*
Y461007D01*
Y445773D01*
X843276Y461007D02*
X833119D01*
Y453390D01*
X838197Y455929D01*
X840737D01*
X843276Y453390D01*
Y448312D01*
X840737Y445773D01*
X835658D01*
X833119Y448312D01*
X538484Y289557D02*
Y274322D01*
Y281940D01*
X548641D01*
Y289557D01*
Y274322D01*
X561337D02*
Y289557D01*
X553719Y281940D01*
X563876D01*
X546104Y447038D02*
Y431802D01*
Y439420D01*
X556261D01*
Y447038D01*
Y431802D01*
X561339Y444498D02*
X563878Y447038D01*
X568957D01*
X571496Y444498D01*
Y441959D01*
X568957Y439420D01*
X566418D01*
X568957D01*
X571496Y436881D01*
Y434342D01*
X568957Y431802D01*
X563878D01*
X561339Y434342D01*
X337824Y441958D02*
Y426722D01*
Y434340D01*
X347981D01*
Y441958D01*
Y426722D01*
X363216D02*
X353059D01*
X363216Y436879D01*
Y439418D01*
X360677Y441958D01*
X355598D01*
X353059Y439418D01*
X440693Y444497D02*
Y429263D01*
Y436880D01*
X450850D01*
Y444497D01*
Y429263D01*
X455928D02*
X461007D01*
X458468D01*
Y444497D01*
X455928Y441958D01*
X864874Y760727D02*
Y745492D01*
X872492D01*
X875031Y748032D01*
Y758188D01*
X872492Y760727D01*
X864874D01*
X890266Y745492D02*
X880109D01*
X890266Y755649D01*
Y758188D01*
X887727Y760727D01*
X882648D01*
X880109Y758188D01*
X868683Y810257D02*
Y795023D01*
X876301D01*
X878840Y797562D01*
Y807718D01*
X876301Y810257D01*
X868683D01*
X883918Y795023D02*
X888997D01*
X886458D01*
Y810257D01*
X883918Y807718D01*
X1344933Y497838D02*
X1342394Y500378D01*
X1337315D01*
X1334776Y497838D01*
Y487682D01*
X1337315Y485143D01*
X1342394D01*
X1344933Y487682D01*
X1350011Y485143D02*
X1355090D01*
X1352550D01*
Y500378D01*
X1350011Y497838D01*
X1362707D02*
X1365246Y500378D01*
X1370325D01*
X1372864Y497838D01*
Y495299D01*
X1370325Y492760D01*
X1372864Y490221D01*
Y487682D01*
X1370325Y485143D01*
X1365246D01*
X1362707Y487682D01*
Y490221D01*
X1365246Y492760D01*
X1362707Y495299D01*
Y497838D01*
X1365246Y492760D02*
X1370325D01*
X1292863Y499108D02*
X1290324Y501647D01*
X1285245D01*
X1282706Y499108D01*
Y488952D01*
X1285245Y486413D01*
X1290324D01*
X1292863Y488952D01*
X1297941Y486413D02*
X1303020D01*
X1300480D01*
Y501647D01*
X1297941Y499108D01*
X1310637Y501647D02*
X1320794D01*
Y499108D01*
X1310637Y488952D01*
Y486413D01*
X1229363Y497838D02*
X1226824Y500378D01*
X1221745D01*
X1219206Y497838D01*
Y487682D01*
X1221745Y485143D01*
X1226824D01*
X1229363Y487682D01*
X1234441Y485143D02*
X1239520D01*
X1236980D01*
Y500378D01*
X1234441Y497838D01*
X1257294Y500378D02*
X1252215Y497838D01*
X1247137Y492760D01*
Y487682D01*
X1249676Y485143D01*
X1254755D01*
X1257294Y487682D01*
Y490221D01*
X1254755Y492760D01*
X1247137D01*
X1169673Y496568D02*
X1167134Y499108D01*
X1162055D01*
X1159516Y496568D01*
Y486412D01*
X1162055Y483872D01*
X1167134D01*
X1169673Y486412D01*
X1174751Y483872D02*
X1179830D01*
X1177290D01*
Y499108D01*
X1174751Y496568D01*
X1197604Y499108D02*
X1187447D01*
Y491490D01*
X1192525Y494029D01*
X1195065D01*
X1197604Y491490D01*
Y486412D01*
X1195065Y483872D01*
X1189986D01*
X1187447Y486412D01*
X1109983Y496568D02*
X1107444Y499108D01*
X1102365D01*
X1099826Y496568D01*
Y486412D01*
X1102365Y483872D01*
X1107444D01*
X1109983Y486412D01*
X1115061Y483872D02*
X1120140D01*
X1117600D01*
Y499108D01*
X1115061Y496568D01*
X1135375Y483872D02*
Y499108D01*
X1127757Y491490D01*
X1137914D01*
X1102363Y615948D02*
X1099824Y618488D01*
X1094745D01*
X1092206Y615948D01*
Y605792D01*
X1094745Y603252D01*
X1099824D01*
X1102363Y605792D01*
X1107441Y603252D02*
X1112520D01*
X1109980D01*
Y618488D01*
X1107441Y615948D01*
X1120137D02*
X1122676Y618488D01*
X1127755D01*
X1130294Y615948D01*
Y613409D01*
X1127755Y610870D01*
X1125216D01*
X1127755D01*
X1130294Y608331D01*
Y605792D01*
X1127755Y603252D01*
X1122676D01*
X1120137Y605792D01*
X1164593Y618488D02*
X1162054Y621027D01*
X1156975D01*
X1154436Y618488D01*
Y608332D01*
X1156975Y605793D01*
X1162054D01*
X1164593Y608332D01*
X1169671Y605793D02*
X1174750D01*
X1172210D01*
Y621027D01*
X1169671Y618488D01*
X1192524Y605793D02*
X1182367D01*
X1192524Y615949D01*
Y618488D01*
X1189985Y621027D01*
X1184906D01*
X1182367Y618488D01*
X1226822D02*
X1224283Y621027D01*
X1219204D01*
X1216665Y618488D01*
Y608332D01*
X1219204Y605793D01*
X1224283D01*
X1226822Y608332D01*
X1231900Y605793D02*
X1236979D01*
X1234440D01*
Y621027D01*
X1231900Y618488D01*
X1244596Y605793D02*
X1249675D01*
X1247135D01*
Y621027D01*
X1244596Y618488D01*
X1287783D02*
X1285244Y621027D01*
X1280165D01*
X1277626Y618488D01*
Y608332D01*
X1280165Y605793D01*
X1285244D01*
X1287783Y608332D01*
X1292861Y605793D02*
X1297940D01*
X1295400D01*
Y621027D01*
X1292861Y618488D01*
X1305557D02*
X1308096Y621027D01*
X1313175D01*
X1315714Y618488D01*
Y608332D01*
X1313175Y605793D01*
X1308096D01*
X1305557Y608332D01*
Y618488D01*
X1350011D02*
X1347472Y621027D01*
X1342393D01*
X1339854Y618488D01*
Y608332D01*
X1342393Y605793D01*
X1347472D01*
X1350011Y608332D01*
X1355089D02*
X1357628Y605793D01*
X1362707D01*
X1365246Y608332D01*
Y618488D01*
X1362707Y621027D01*
X1357628D01*
X1355089Y618488D01*
Y615949D01*
X1357628Y613410D01*
X1365246D01*
X335281Y547368D02*
X332742Y549907D01*
X327663D01*
X325124Y547368D01*
Y537212D01*
X327663Y534673D01*
X332742D01*
X335281Y537212D01*
X340359Y547368D02*
X342898Y549907D01*
X347977D01*
X350516Y547368D01*
Y544829D01*
X347977Y542290D01*
X350516Y539751D01*
Y537212D01*
X347977Y534673D01*
X342898D01*
X340359Y537212D01*
Y539751D01*
X342898Y542290D01*
X340359Y544829D01*
Y547368D01*
X342898Y542290D02*
X347977D01*
X398781Y547368D02*
X396242Y549907D01*
X391163D01*
X388624Y547368D01*
Y537212D01*
X391163Y534673D01*
X396242D01*
X398781Y537212D01*
X403859Y549907D02*
X414016D01*
Y547368D01*
X403859Y537212D01*
Y534673D01*
X452121Y547368D02*
X449582Y549907D01*
X444503D01*
X441964Y547368D01*
Y537212D01*
X444503Y534673D01*
X449582D01*
X452121Y537212D01*
X467356Y549907D02*
X462277Y547368D01*
X457199Y542290D01*
Y537212D01*
X459738Y534673D01*
X464817D01*
X467356Y537212D01*
Y539751D01*
X464817Y542290D01*
X457199D01*
X1492251Y496568D02*
X1489712Y499108D01*
X1484633D01*
X1482094Y496568D01*
Y486412D01*
X1484633Y483872D01*
X1489712D01*
X1492251Y486412D01*
X1504947Y483872D02*
Y499108D01*
X1497329Y491490D01*
X1507486D01*
X1549401Y715008D02*
X1546862Y717548D01*
X1541783D01*
X1539244Y715008D01*
Y704852D01*
X1541783Y702312D01*
X1546862D01*
X1549401Y704852D01*
X1554479Y715008D02*
X1557018Y717548D01*
X1562097D01*
X1564636Y715008D01*
Y712469D01*
X1562097Y709930D01*
X1559557D01*
X1562097D01*
X1564636Y707391D01*
Y704852D01*
X1562097Y702312D01*
X1557018D01*
X1554479Y704852D01*
X1548131Y610868D02*
X1545592Y613408D01*
X1540513D01*
X1537974Y610868D01*
Y600712D01*
X1540513Y598172D01*
X1545592D01*
X1548131Y600712D01*
X1563366Y598172D02*
X1553209D01*
X1563366Y608329D01*
Y610868D01*
X1560827Y613408D01*
X1555748D01*
X1553209Y610868D01*
X1413510Y504188D02*
X1410971Y506727D01*
X1405892D01*
X1403353Y504188D01*
Y494032D01*
X1405892Y491493D01*
X1410971D01*
X1413510Y494032D01*
X1418588Y491493D02*
X1423667D01*
X1421128D01*
Y506727D01*
X1418588Y504188D01*
M02*
