G04*
G04 #@! TF.GenerationSoftware,Altium Limited,Altium Designer,23.3.1 (30)*
G04*
G04 Layer_Color=128*
%FSLAX44Y44*%
%MOMM*%
G71*
G04*
G04 #@! TF.SameCoordinates,EAF1F0D8-16AB-4789-B3CC-ED1B898C5CC7*
G04*
G04*
G04 #@! TF.FilePolarity,Positive*
G04*
G01*
G75*
%ADD84C,0.1270*%
D84*
X371690Y478790D02*
X382690D01*
X377190Y473290D02*
Y484290D01*
X371690Y453390D02*
X382690D01*
X377190Y447890D02*
Y458890D01*
X346290Y478790D02*
X357290D01*
X351790Y473290D02*
Y484290D01*
X346290Y453390D02*
X357290D01*
X351790Y447890D02*
Y458890D01*
X320890Y478790D02*
X331890D01*
X326390Y473290D02*
Y484290D01*
X320890Y453390D02*
X331890D01*
X326390Y447890D02*
Y458890D01*
X389900Y327660D02*
X399900D01*
X394900Y322660D02*
Y332660D01*
X414900Y327660D02*
X424900D01*
X419900Y322660D02*
Y332660D01*
X439900Y327660D02*
X449900D01*
X444900Y322660D02*
Y332660D01*
X464900Y327660D02*
X474900D01*
X469900Y322660D02*
Y332660D01*
X870773Y327660D02*
X880773D01*
X875773Y322660D02*
Y332660D01*
X845773Y327660D02*
X855772D01*
X850772Y322660D02*
Y332660D01*
X563760Y398950D02*
X573760D01*
X568760Y393950D02*
Y403950D01*
X538760Y398950D02*
X548760D01*
X543760Y393950D02*
Y403950D01*
X971380Y326390D02*
X981880D01*
X976630Y321140D02*
Y331640D01*
X945980Y326390D02*
X956480D01*
X951230Y321140D02*
Y331640D01*
X920580Y326390D02*
X931080D01*
X925830Y321140D02*
Y331640D01*
X846100Y776380D02*
X853100D01*
X849600Y772880D02*
Y779880D01*
X922360Y776380D02*
X929360D01*
X925860Y772880D02*
Y779880D01*
X1560920Y657860D02*
X1568920D01*
X1564920Y653860D02*
Y661860D01*
X1595920Y657860D02*
X1603920D01*
X1599920Y653860D02*
Y661860D01*
X1677570Y642620D02*
X1690470D01*
X1684020Y636170D02*
Y649070D01*
X1677570Y668020D02*
X1690470D01*
X1684020Y661570D02*
Y674470D01*
X1677570Y693420D02*
X1690470D01*
X1684020Y686970D02*
Y699870D01*
X1344240Y695960D02*
X1353240D01*
X1348740Y691460D02*
Y700460D01*
X1344240Y645160D02*
X1353240D01*
X1348740Y640660D02*
Y649660D01*
X1390610Y670560D02*
X1399610D01*
X1395110Y666060D02*
Y675060D01*
X1503610Y670560D02*
X1512610D01*
X1508110Y666060D02*
Y675060D01*
X1418420Y524510D02*
X1425720D01*
X1422070Y520860D02*
Y528160D01*
X1418420Y549910D02*
X1425720D01*
X1422070Y546260D02*
Y553560D01*
X1418420Y575310D02*
X1425720D01*
X1422070Y571660D02*
Y578960D01*
X1418420Y600710D02*
X1425720D01*
X1422070Y597060D02*
Y604360D01*
X1497820Y600710D02*
X1505120D01*
X1501470Y597060D02*
Y604360D01*
X1497820Y575310D02*
X1505120D01*
X1501470Y571660D02*
Y578960D01*
X1497820Y549910D02*
X1505120D01*
X1501470Y546260D02*
Y553560D01*
X1497820Y524510D02*
X1505120D01*
X1501470Y520860D02*
Y528160D01*
X1410780Y460730D02*
X1418780D01*
X1414780Y456730D02*
Y464730D01*
X1410780Y425730D02*
X1418780D01*
X1414780Y421730D02*
Y429730D01*
X1578420Y536220D02*
X1586420D01*
X1582420Y532220D02*
Y540220D01*
X1578420Y571220D02*
X1586420D01*
X1582420Y567220D02*
Y575220D01*
X1672910Y317500D02*
X1712910D01*
X1692910Y297500D02*
Y337500D01*
X1672910Y772160D02*
X1712910D01*
X1692910Y752160D02*
Y792160D01*
X312740Y317500D02*
X352740D01*
X332740Y297500D02*
Y337500D01*
X312740Y772160D02*
X352740D01*
X332740Y752160D02*
Y792160D01*
X1124030Y348850D02*
X1134030D01*
X1129030Y343850D02*
Y353850D01*
X1124030Y323850D02*
X1134030D01*
X1129030Y318850D02*
Y328850D01*
X1685120Y389890D02*
X1695620D01*
X1690370Y384640D02*
Y395140D01*
X1685120Y415290D02*
X1695620D01*
X1690370Y410040D02*
Y420540D01*
X1685120Y440690D02*
X1695620D01*
X1690370Y435440D02*
Y445940D01*
X1608920Y388620D02*
X1619420D01*
X1614170Y383370D02*
Y393870D01*
X1608920Y414020D02*
X1619420D01*
X1614170Y408770D02*
Y419270D01*
X1608920Y439420D02*
X1619420D01*
X1614170Y434170D02*
Y444670D01*
X654900Y311087D02*
X665900D01*
X660400Y305587D02*
Y316587D01*
X654900Y336487D02*
X665900D01*
X660400Y330987D02*
Y341987D01*
X680300Y311087D02*
X691300D01*
X685800Y305587D02*
Y316587D01*
X680300Y336487D02*
X691300D01*
X685800Y330987D02*
Y341987D01*
X705700Y311087D02*
X716700D01*
X711200Y305587D02*
Y316587D01*
X705700Y336487D02*
X716700D01*
X711200Y330987D02*
Y341987D01*
X731100Y311087D02*
X742100D01*
X736600Y305587D02*
Y316587D01*
X731100Y336487D02*
X742100D01*
X736600Y330987D02*
Y341987D01*
X756500Y311087D02*
X767500D01*
X762000Y305587D02*
Y316587D01*
X756500Y336487D02*
X767500D01*
X762000Y330987D02*
Y341987D01*
X980450Y601650D02*
X988050D01*
X984250Y597850D02*
Y605450D01*
X1005850Y601650D02*
X1013450D01*
X1009650Y597850D02*
Y605450D01*
X1031250Y601650D02*
X1038850D01*
X1035050Y597850D02*
Y605450D01*
X1056650Y601650D02*
X1064250D01*
X1060450Y597850D02*
Y605450D01*
X1056650Y681050D02*
X1064250D01*
X1060450Y677250D02*
Y684850D01*
X1031250Y681050D02*
X1038850D01*
X1035050Y677250D02*
Y684850D01*
X1005850Y681050D02*
X1013450D01*
X1009650Y677250D02*
Y684850D01*
X980450Y681050D02*
X988050D01*
X984250Y677250D02*
Y684850D01*
X1050820Y565150D02*
X1058320D01*
X1054570Y561400D02*
Y568900D01*
X950820Y565150D02*
X958320D01*
X954570Y561400D02*
Y568900D01*
X1115640Y645160D02*
X1124640D01*
X1120140Y640660D02*
Y649660D01*
X1115640Y695960D02*
X1124640D01*
X1120140Y691460D02*
Y700460D01*
X335560Y398950D02*
X345560D01*
X340560Y393950D02*
Y403950D01*
X360560Y398950D02*
X370560D01*
X365560Y393950D02*
Y403950D01*
X437160Y398950D02*
X447160D01*
X442160Y393950D02*
Y403950D01*
X462160Y398950D02*
X472160D01*
X467160Y393950D02*
Y403950D01*
X795100Y732790D02*
X805100D01*
X800100Y727790D02*
Y737790D01*
X795100Y757790D02*
X805100D01*
X800100Y752790D02*
Y762790D01*
X660480Y421640D02*
X670480D01*
X665480Y416640D02*
Y426640D01*
X685480Y421640D02*
X695480D01*
X690480Y416640D02*
Y426640D01*
X710480Y421640D02*
X720480D01*
X715480Y416640D02*
Y426640D01*
X735480Y421640D02*
X745480D01*
X740480Y416640D02*
Y426640D01*
X534950Y325290D02*
X544950D01*
X539950Y320290D02*
Y330290D01*
X559950Y325290D02*
X569950D01*
X564950Y320290D02*
Y330290D01*
X1154110Y753110D02*
X1164110D01*
X1159110Y748110D02*
Y758110D01*
X1129110Y753110D02*
X1139110D01*
X1134110Y748110D02*
Y758110D01*
X818360Y417830D02*
X828360D01*
X823360Y412830D02*
Y422830D01*
X843360Y417830D02*
X853360D01*
X848360Y412830D02*
Y422830D01*
X927580Y403860D02*
X937580D01*
X932580Y398860D02*
Y408860D01*
X952580Y403860D02*
X962580D01*
X957580Y398860D02*
Y408860D01*
X1104900Y414020D02*
X1115060D01*
X1109980Y408940D02*
Y419100D01*
X1130300Y414020D02*
X1140460D01*
X1135380Y408940D02*
Y419100D01*
X1155700Y414020D02*
X1165860D01*
X1160780Y408940D02*
Y419100D01*
X1181100Y414020D02*
X1191260D01*
X1186180Y408940D02*
Y419100D01*
X1206500Y414020D02*
X1216660D01*
X1211580Y408940D02*
Y419100D01*
X1231900Y414020D02*
X1242060D01*
X1236980Y408940D02*
Y419100D01*
X1257300Y414020D02*
X1267460D01*
X1262380Y408940D02*
Y419100D01*
X1282700Y414020D02*
X1292860D01*
X1287780Y408940D02*
Y419100D01*
X1308100Y414020D02*
X1318260D01*
X1313180Y408940D02*
Y419100D01*
X1333500Y414020D02*
X1343660D01*
X1338580Y408940D02*
Y419100D01*
X1334156Y457200D02*
X1344316D01*
X1339236Y452120D02*
Y462280D01*
X1308756Y457200D02*
X1318916D01*
X1313836Y452120D02*
Y462280D01*
X1283356Y457200D02*
X1293516D01*
X1288436Y452120D02*
Y462280D01*
X1257956Y457200D02*
X1268116D01*
X1263036Y452120D02*
Y462280D01*
X1232556Y457200D02*
X1242716D01*
X1237636Y452120D02*
Y462280D01*
X1207156Y457200D02*
X1217316D01*
X1212236Y452120D02*
Y462280D01*
X1181756Y457200D02*
X1191916D01*
X1186836Y452120D02*
Y462280D01*
X1156356Y457200D02*
X1166516D01*
X1161436Y452120D02*
Y462280D01*
X1130956Y457200D02*
X1141116D01*
X1136036Y452120D02*
Y462280D01*
X1105556Y457200D02*
X1115716D01*
X1110636Y452120D02*
Y462280D01*
X1344240Y527050D02*
X1353240D01*
X1348740Y522550D02*
Y531550D01*
X1344240Y577850D02*
X1353240D01*
X1348740Y573350D02*
Y582350D01*
X1172790Y645160D02*
X1181790D01*
X1177290Y640660D02*
Y649660D01*
X1172790Y695960D02*
X1181790D01*
X1177290Y691460D02*
Y700460D01*
X1287090Y645160D02*
X1296090D01*
X1291590Y640660D02*
Y649660D01*
X1287090Y695960D02*
X1296090D01*
X1291590Y691460D02*
Y700460D01*
X1229940Y645160D02*
X1238940D01*
X1234440Y640660D02*
Y649660D01*
X1229940Y695960D02*
X1238940D01*
X1234440Y691460D02*
Y700460D01*
X1287090Y527050D02*
X1296090D01*
X1291590Y522550D02*
Y531550D01*
X1287090Y577850D02*
X1296090D01*
X1291590Y573350D02*
Y582350D01*
X1229940Y527050D02*
X1238940D01*
X1234440Y522550D02*
Y531550D01*
X1229940Y577850D02*
X1238940D01*
X1234440Y573350D02*
Y582350D01*
X1172790Y527050D02*
X1181790D01*
X1177290Y522550D02*
Y531550D01*
X1172790Y577850D02*
X1181790D01*
X1177290Y573350D02*
Y582350D01*
X1115640Y527050D02*
X1124640D01*
X1120140Y522550D02*
Y531550D01*
X1115640Y577850D02*
X1124640D01*
X1120140Y573350D02*
Y582350D01*
X632050Y725170D02*
X639550D01*
X635800Y721420D02*
Y728920D01*
X732050Y725170D02*
X739550D01*
X735800Y721420D02*
Y728920D01*
X1677570Y566420D02*
X1690470D01*
X1684020Y559970D02*
Y572870D01*
X1677570Y541020D02*
X1690470D01*
X1684020Y534570D02*
Y547470D01*
X1677570Y515620D02*
X1690470D01*
X1684020Y509170D02*
Y522070D01*
X1570200Y753110D02*
X1580200D01*
X1575200Y748110D02*
Y758110D01*
X1595200Y753110D02*
X1605200D01*
X1600200Y748110D02*
Y758110D01*
X834970Y601980D02*
X843970D01*
X839470Y597480D02*
Y606480D01*
X860370Y601980D02*
X869370D01*
X864870Y597480D02*
Y606480D01*
X885770Y601980D02*
X894770D01*
X890270Y597480D02*
Y606480D01*
X911170Y601980D02*
X920170D01*
X915670Y597480D02*
Y606480D01*
X834970Y678180D02*
X843970D01*
X839470Y673680D02*
Y682680D01*
X860370Y678180D02*
X869370D01*
X864870Y673680D02*
Y682680D01*
X885770Y678180D02*
X894770D01*
X890270Y673680D02*
Y682680D01*
X911170Y678180D02*
X920170D01*
X915670Y673680D02*
Y682680D01*
X978760Y726440D02*
X986260D01*
X982510Y722690D02*
Y730190D01*
X1078760Y726440D02*
X1086260D01*
X1082510Y722690D02*
Y730190D01*
X1078760Y773430D02*
X1086260D01*
X1082510Y769680D02*
Y777180D01*
X978760Y773430D02*
X986260D01*
X982510Y769680D02*
Y777180D01*
X1048280Y528320D02*
X1055780D01*
X1052030Y524570D02*
Y532070D01*
X948280Y528320D02*
X955780D01*
X952030Y524570D02*
Y532070D01*
X1048280Y450850D02*
X1055780D01*
X1052030Y447100D02*
Y454600D01*
X948280Y450850D02*
X955780D01*
X952030Y447100D02*
Y454600D01*
X1048280Y490220D02*
X1055780D01*
X1052030Y486470D02*
Y493970D01*
X948280Y490220D02*
X955780D01*
X952030Y486470D02*
Y493970D01*
X847150Y568160D02*
X854650D01*
X850900Y564410D02*
Y571910D01*
X847150Y468160D02*
X854650D01*
X850900Y464410D02*
Y471910D01*
X890330Y469430D02*
X897830D01*
X894080Y465680D02*
Y473180D01*
X890330Y569430D02*
X897830D01*
X894080Y565680D02*
Y573180D01*
X805240Y568160D02*
X812740D01*
X808990Y564410D02*
Y571910D01*
X805240Y468160D02*
X812740D01*
X808990Y464410D02*
Y471910D01*
X507590Y715010D02*
X515090D01*
X511340Y711260D02*
Y718760D01*
X607590Y715010D02*
X615090D01*
X611340Y711260D02*
Y718760D01*
X632050Y772160D02*
X639550D01*
X635800Y768410D02*
Y775910D01*
X732050Y772160D02*
X739550D01*
X735800Y768410D02*
Y775910D01*
X453920Y671830D02*
X461420D01*
X457670Y668080D02*
Y675580D01*
X353920Y671830D02*
X361420D01*
X357670Y668080D02*
Y675580D01*
X452650Y717550D02*
X460150D01*
X456400Y713800D02*
Y721300D01*
X352650Y717550D02*
X360150D01*
X356400Y713800D02*
Y721300D01*
X650190Y544830D02*
X658690D01*
X654440Y540580D02*
Y549080D01*
X540190Y544830D02*
X548690D01*
X544440Y540580D02*
Y549080D01*
X648920Y496570D02*
X657420D01*
X653170Y492320D02*
Y500820D01*
X538920Y496570D02*
X547420D01*
X543170Y492320D02*
Y500820D01*
X1504880Y726440D02*
X1513880D01*
X1509380Y721940D02*
Y730940D01*
X1391880Y726440D02*
X1400880D01*
X1396380Y721940D02*
Y730940D01*
X1250530Y317500D02*
X1261530D01*
X1256030Y312000D02*
Y323000D01*
X1225130Y317500D02*
X1236130D01*
X1230630Y312000D02*
Y323000D01*
X1199730Y317500D02*
X1210730D01*
X1205230Y312000D02*
Y323000D01*
X1374990Y317500D02*
X1385990D01*
X1380490Y312000D02*
Y323000D01*
X1349590Y317500D02*
X1360590D01*
X1355090Y312000D02*
Y323000D01*
X1324190Y317500D02*
X1335190D01*
X1329690Y312000D02*
Y323000D01*
X1019620Y341630D02*
X1027620D01*
X1023620Y337630D02*
Y345630D01*
X1019620Y328930D02*
X1027620D01*
X1023620Y324930D02*
Y332930D01*
X1019620Y316230D02*
X1027620D01*
X1023620Y312230D02*
Y320230D01*
X1560680Y320040D02*
X1573680D01*
X1567180Y313540D02*
Y326540D01*
X1586180Y320040D02*
X1599180D01*
X1592680Y313540D02*
Y326540D01*
X1611680Y320040D02*
X1624680D01*
X1618180Y313540D02*
Y326540D01*
X1494840Y320040D02*
X1507840D01*
X1501340Y313540D02*
Y326540D01*
X1469340Y320040D02*
X1482340D01*
X1475840Y313540D02*
Y326540D01*
X1443840Y320040D02*
X1456840D01*
X1450340Y313540D02*
Y326540D01*
X679460Y554990D02*
X687060D01*
X683260Y551190D02*
Y558790D01*
X704860Y554990D02*
X712460D01*
X708660Y551190D02*
Y558790D01*
X730260Y554990D02*
X737860D01*
X734060Y551190D02*
Y558790D01*
X755660Y554990D02*
X763260D01*
X759460Y551190D02*
Y558790D01*
X755660Y475590D02*
X763260D01*
X759460Y471790D02*
Y479390D01*
X730260Y475590D02*
X737860D01*
X734060Y471790D02*
Y479390D01*
X704860Y475590D02*
X712460D01*
X708660Y471790D02*
Y479390D01*
X679460Y475590D02*
X687060D01*
X683260Y471790D02*
Y479390D01*
X684540Y597840D02*
X692140D01*
X688340Y594040D02*
Y601640D01*
X709940Y597840D02*
X717540D01*
X713740Y594040D02*
Y601640D01*
X735340Y597840D02*
X742940D01*
X739140Y594040D02*
Y601640D01*
X760740Y597840D02*
X768340D01*
X764540Y594040D02*
Y601640D01*
X760740Y677240D02*
X768340D01*
X764540Y673440D02*
Y681040D01*
X735340Y677240D02*
X742940D01*
X739140Y673440D02*
Y681040D01*
X709940Y677240D02*
X717540D01*
X713740Y673440D02*
Y681040D01*
X684540Y677240D02*
X692140D01*
X688340Y673440D02*
Y681040D01*
X537220Y596570D02*
X544820D01*
X541020Y592770D02*
Y600370D01*
X562620Y596570D02*
X570220D01*
X566420Y592770D02*
Y600370D01*
X588020Y596570D02*
X595620D01*
X591820Y592770D02*
Y600370D01*
X613420Y596570D02*
X621020D01*
X617220Y592770D02*
Y600370D01*
X613420Y675970D02*
X621020D01*
X617220Y672170D02*
Y679770D01*
X588020Y675970D02*
X595620D01*
X591820Y672170D02*
Y679770D01*
X562620Y675970D02*
X570220D01*
X566420Y672170D02*
Y679770D01*
X537220Y675970D02*
X544820D01*
X541020Y672170D02*
Y679770D01*
X846100Y727710D02*
X853100D01*
X849600Y724210D02*
Y731210D01*
X922360Y727710D02*
X929360D01*
X925860Y724210D02*
Y731210D01*
X337130Y623570D02*
X346130D01*
X341630Y619070D02*
Y628070D01*
X337130Y572770D02*
X346130D01*
X341630Y568270D02*
Y577270D01*
X391740Y572770D02*
X400740D01*
X396240Y568270D02*
Y577270D01*
X391740Y623570D02*
X400740D01*
X396240Y619070D02*
Y628070D01*
X450160Y623570D02*
X459160D01*
X454660Y619070D02*
Y628070D01*
X450160Y572770D02*
X459160D01*
X454660Y568270D02*
Y577270D01*
X1518730Y425730D02*
X1526730D01*
X1522730Y421730D02*
Y429730D01*
X1518730Y460730D02*
X1526730D01*
X1522730Y456730D02*
Y464730D01*
X583364Y570586D02*
X586864D01*
X585114Y568836D02*
Y572336D01*
X574830Y570230D02*
X578330D01*
X576580Y568480D02*
Y571980D01*
X564670Y570230D02*
X568170D01*
X566420Y568480D02*
Y571980D01*
X583720Y579120D02*
X587220D01*
X585470Y577370D02*
Y580870D01*
X574830Y579120D02*
X578330D01*
X576580Y577370D02*
Y580870D01*
X564670Y579120D02*
X568170D01*
X566420Y577370D02*
Y580870D01*
X1061240Y339090D02*
X1064740D01*
X1062990Y337340D02*
Y340840D01*
X1051080Y339090D02*
X1054580D01*
X1052830Y337340D02*
Y340840D01*
X1039650Y339090D02*
X1043150D01*
X1041400Y337340D02*
Y340840D01*
X1049810Y321310D02*
X1053310D01*
X1051560Y319560D02*
Y323060D01*
X1039650Y321310D02*
X1043150D01*
X1041400Y319560D02*
Y323060D01*
X1061240Y330200D02*
X1064740D01*
X1062990Y328450D02*
Y331950D01*
X1051080Y330200D02*
X1054580D01*
X1052830Y328450D02*
Y331950D01*
X1039650Y330200D02*
X1043150D01*
X1041400Y328450D02*
Y331950D01*
X615990Y421640D02*
X620990D01*
X618490Y419140D02*
Y424140D01*
M02*
